<mxfile host="65bd71144e">
    <diagram id="-mQ14RNn8V7Y9UPMLvV2" name="Services">
        <mxGraphModel dx="1734" dy="497" grid="1" gridSize="10" guides="1" tooltips="1" connect="1" arrows="1" fold="1" page="1" pageScale="1" pageWidth="827" pageHeight="1169" math="0" shadow="0">
            <root>
                <mxCell id="0"/>
                <mxCell id="1" parent="0"/>
                <mxCell id="2" value="&lt;b&gt;Region : Europe&lt;/b&gt;" style="sketch=0;points=[[0,0,0],[0.25,0,0],[0.5,0,0],[0.75,0,0],[1,0,0],[1,0.25,0],[1,0.5,0],[1,0.75,0],[1,1,0],[0.75,1,0],[0.5,1,0],[0.25,1,0],[0,1,0],[0,0.75,0],[0,0.5,0],[0,0.25,0]];rounded=1;absoluteArcSize=1;arcSize=2;html=1;strokeColor=none;gradientColor=none;shadow=0;dashed=0;fontSize=12;fontColor=#9E9E9E;align=left;verticalAlign=top;spacing=10;spacingTop=-4;fillColor=#ECEFF1;" parent="1" vertex="1">
                    <mxGeometry x="-13" y="289" width="840" height="500" as="geometry"/>
                </mxCell>
                <mxCell id="4" value="Access" style="rounded=1;absoluteArcSize=1;arcSize=2;html=1;strokeColor=none;gradientColor=none;shadow=0;dashed=1;strokeColor=#4284F3;fontSize=12;fontColor=#9E9E9E;align=left;verticalAlign=top;spacing=10;spacingTop=-4;fillColor=none;dashPattern=1 2;strokeWidth=2;" parent="1" vertex="1">
                    <mxGeometry x="508" y="600" width="320" height="180" as="geometry"/>
                </mxCell>
                <mxCell id="5" value="Project &lt;b&gt;-eltpipelines&lt;/b&gt;" style="sketch=0;points=[[0,0,0],[0.25,0,0],[0.5,0,0],[0.75,0,0],[1,0,0],[1,0.25,0],[1,0.5,0],[1,0.75,0],[1,1,0],[0.75,1,0],[0.5,1,0],[0.25,1,0],[0,1,0],[0,0.75,0],[0,0.5,0],[0,0.25,0]];rounded=1;absoluteArcSize=1;arcSize=2;html=1;strokeColor=none;gradientColor=none;shadow=0;dashed=0;fontSize=12;fontColor=#9E9E9E;align=left;verticalAlign=top;spacing=10;spacingTop=-4;fillColor=#F6F6F6;" parent="1" vertex="1">
                    <mxGeometry x="18" y="320" width="273" height="130" as="geometry"/>
                </mxCell>
                <mxCell id="6" value="Project &lt;b&gt;-test&lt;/b&gt;" style="sketch=0;points=[[0,0,0],[0.25,0,0],[0.5,0,0],[0.75,0,0],[1,0,0],[1,0.25,0],[1,0.5,0],[1,0.75,0],[1,1,0],[0.75,1,0],[0.5,1,0],[0.25,1,0],[0,1,0],[0,0.75,0],[0,0.5,0],[0,0.25,0]];rounded=1;absoluteArcSize=1;arcSize=2;html=1;strokeColor=none;gradientColor=none;shadow=0;dashed=0;fontSize=12;fontColor=#9E9E9E;align=left;verticalAlign=top;spacing=10;spacingTop=-4;fillColor=#F6F6F6;" parent="1" vertex="1">
                    <mxGeometry x="5" y="500" width="273" height="261" as="geometry"/>
                </mxCell>
                <mxCell id="7" value="Project &lt;b&gt;-datastore&lt;/b&gt;" style="sketch=0;points=[[0,0,0],[0.25,0,0],[0.5,0,0],[0.75,0,0],[1,0,0],[1,0.25,0],[1,0.5,0],[1,0.75,0],[1,1,0],[0.75,1,0],[0.5,1,0],[0.25,1,0],[0,1,0],[0,0.75,0],[0,0.5,0],[0,0.25,0]];rounded=1;absoluteArcSize=1;arcSize=2;html=1;strokeColor=none;gradientColor=none;shadow=0;dashed=0;fontSize=12;fontColor=#9E9E9E;align=left;verticalAlign=top;spacing=10;spacingTop=-4;fillColor=#F6F6F6;" parent="1" vertex="1">
                    <mxGeometry x="519" y="640" width="140" height="121" as="geometry"/>
                </mxCell>
                <mxCell id="8" value="Project &lt;b&gt;-datamarts&lt;/b&gt;" style="sketch=0;points=[[0,0,0],[0.25,0,0],[0.5,0,0],[0.75,0,0],[1,0,0],[1,0.25,0],[1,0.5,0],[1,0.75,0],[1,1,0],[0.75,1,0],[0.5,1,0],[0.25,1,0],[0,1,0],[0,0.75,0],[0,0.5,0],[0,0.25,0]];rounded=1;absoluteArcSize=1;arcSize=2;html=1;strokeColor=none;gradientColor=none;shadow=0;dashed=0;fontSize=12;fontColor=#9E9E9E;align=left;verticalAlign=top;spacing=10;spacingTop=-4;fillColor=#F6F6F6;" parent="1" vertex="1">
                    <mxGeometry x="668" y="640" width="140" height="120" as="geometry"/>
                </mxCell>
                <mxCell id="10" value="Project &lt;b&gt;-dataprep&lt;/b&gt;" style="sketch=0;points=[[0,0,0],[0.25,0,0],[0.5,0,0],[0.75,0,0],[1,0,0],[1,0.25,0],[1,0.5,0],[1,0.75,0],[1,1,0],[0.75,1,0],[0.5,1,0],[0.25,1,0],[0,1,0],[0,0.75,0],[0,0.5,0],[0,0.25,0]];rounded=1;absoluteArcSize=1;arcSize=2;html=1;strokeColor=none;gradientColor=none;shadow=0;dashed=0;fontSize=12;fontColor=#9E9E9E;align=left;verticalAlign=top;spacing=10;spacingTop=-4;fillColor=#F6F6F6;" parent="1" vertex="1">
                    <mxGeometry x="328" y="639" width="143" height="121" as="geometry"/>
                </mxCell>
                <mxCell id="11" value="Project&amp;nbsp;&lt;b&gt;-datalake&lt;/b&gt;" style="sketch=0;points=[[0,0,0],[0.25,0,0],[0.5,0,0],[0.75,0,0],[1,0,0],[1,0.25,0],[1,0.5,0],[1,0.75,0],[1,1,0],[0.75,1,0],[0.5,1,0],[0.25,1,0],[0,1,0],[0,0.75,0],[0,0.5,0],[0,0.25,0]];rounded=1;absoluteArcSize=1;arcSize=2;html=1;strokeColor=none;gradientColor=none;shadow=0;dashed=0;fontSize=12;fontColor=#9E9E9E;align=left;verticalAlign=top;spacing=10;spacingTop=-4;fillColor=#F6F6F6;" parent="1" vertex="1">
                    <mxGeometry x="328" y="499" width="142" height="120" as="geometry"/>
                </mxCell>
                <mxCell id="14" value="Cloud&lt;br&gt;Scheduler" style="sketch=0;html=1;verticalAlign=top;labelPosition=center;verticalLabelPosition=bottom;align=center;spacingTop=-6;fontSize=11;fontStyle=1;fontColor=#999999;shape=image;aspect=fixed;imageAspect=0;image=data:image/svg+xml,PHN2ZyB4bWxucz0iaHR0cDovL3d3dy53My5vcmcvMjAwMC9zdmciIHhtbG5zOnY9Imh0dHBzOi8vdmVjdGEuaW8vbmFubyIgd2lkdGg9IjM2MC4zMDM3NjY4NjA4MzYzIiBoZWlnaHQ9IjM3OC4wNTExNTgwNzc0MDg4IiB2aWV3Qm94PSItMC4wMDAxNjI0MjExNDM2MTM3NTU3IC0wLjAwMDEwMDAwNTk0OTIwNzExNTkyIDk1LjMzMDI2MTIzMDQ2ODc1IDEwMC4wMjYxMDAxNTg2OTE0Ij4mI3hhOzxzdHlsZSB0eXBlPSJ0ZXh0L2NzcyI+JiN4YTsJLnN0MHtmaWxsOiM0Mjg1ZjQ7fSYjeGE7CS5zdDF7ZmlsbDojYWVjYmZhO30mI3hhOwkuc3Qye2ZpbGw6IzY2OWRmNjt9JiN4YTs8L3N0eWxlPiYjeGE7CTxwYXRoIGNsYXNzPSJzdDAiIGQ9Ik03OS45NzEgNzcuNzE1bC03LjM1OSA3LjQ4OCA4LjYzOSA4LjQ5IDcuMzU5LTcuNDg4em0tNjUuMDk2LjA2MWwtOC42NDEgOC40OTIgNy4zNjEgNy40ODggOC42MzktOC40OXoiLz4mI3hhOwk8cGF0aCBjbGFzcz0ic3QxIiBkPSJNNzkuNTUzLjIyMWE1LjI1IDUuMjUgMCAwIDAtMy42NiA4Ljk4NEw4Ni4zODkgMTkuNThhNS4yNSA1LjI1IDAgMCAwIDguOTQxLTMuNzY1IDUuMjUgNS4yNSAwIDAgMC0xLjU2LTMuNzA0TDgzLjI3NSAxLjczOEE1LjI1IDUuMjUgMCAwIDAgNzkuNTUzLjIyMXpNMTUuOTE2IDBhNS4yNSA1LjI1IDAgMCAwLTMuNzIzIDEuNTE2TDEuNjk5IDExLjg5MWE1LjI1IDUuMjUgMCAwIDAtLjA0MyA3LjQyNCA1LjI1IDUuMjUgMCAwIDAgNy40MjQuMDQzTDE5LjU3NiA4Ljk4MkE1LjI1IDUuMjUgMCAwIDAgMTUuOTE2IDB6Ii8+JiN4YTsJPHBhdGggY2xhc3M9InN0MCIgZD0iTTQ4LjEzOCAyNi4yNGMxMy4zNDcgMCAyNS40MzIgMTEuMTM2IDI1LjMxIDI2LjQ4MSAwIDE1LjExLTEyLjI2NyAyNS42NzMtMjUuMTg5IDI1LjY3My0xMS4xNDkgMC0xOC4zMTctNS4xNzEtMjEuOTYtMTAuNzM4bDIxLjgzOS0xNS4wOTd6Ii8+JiN4YTsJPHBhdGggY2xhc3M9InN0MiIgZD0iTTgxLjI1IDkzLjY5M2w0LjY2NCA0LjU4NmE1LjI1IDUuMjUgMCAxIDAgNy4zNjEtNy40OWwtNC42NjYtNC41ODR6TTYuMjM0IDg2LjI2OEwxLjU3IDkwLjg1MWE1LjI1IDUuMjUgMCAwIDAtLjA2NSA3LjQyNCA1LjI1IDUuMjUgMCAwIDAgNy40MjQuMDY0bDQuNjY2LTQuNTg0ek00Ny4zNzEgNS41NzhDMjEuMzQ5IDUuNTc4LjE0NiAyNi43NzkuMTQ2IDUyLjgwMXMyMS4yMDMgNDcuMjI1IDQ3LjIyNSA0Ny4yMjUgNDcuMjI1LTIxLjIwMyA0Ny4yMjUtNDcuMjI1UzczLjM5MyA1LjU3OCA0Ny4zNzEgNS41Nzh6bTAgMTBhMzcuMTUgMzcuMTUgMCAwIDEgMzcuMjI1IDM3LjIyM2MwIDIwLjYxNy0xNi42MDcgMzcuMjI1LTM3LjIyNSAzNy4yMjVTMTAuMTQ2IDczLjQxOCAxMC4xNDYgNTIuODAxYTM3LjE1IDM3LjE1IDAgMCAxIDM3LjIyNS0zNy4yMjN6Ii8+JiN4YTs8L3N2Zz4=;" parent="1" vertex="1">
                    <mxGeometry x="38" y="358" width="40" height="42" as="geometry"/>
                </mxCell>
                <mxCell id="16" value="Cloud&lt;br&gt;Scheduler" style="sketch=0;html=1;verticalAlign=top;labelPosition=center;verticalLabelPosition=bottom;align=center;spacingTop=-6;fontSize=11;fontStyle=1;fontColor=#999999;shape=image;aspect=fixed;imageAspect=0;image=data:image/svg+xml,PHN2ZyB4bWxucz0iaHR0cDovL3d3dy53My5vcmcvMjAwMC9zdmciIHhtbG5zOnY9Imh0dHBzOi8vdmVjdGEuaW8vbmFubyIgd2lkdGg9IjM2MC4zMDM3NjY4NjA4MzYzIiBoZWlnaHQ9IjM3OC4wNTExNTgwNzc0MDg4IiB2aWV3Qm94PSItMC4wMDAxNjI0MjExNDM2MTM3NTU3IC0wLjAwMDEwMDAwNTk0OTIwNzExNTkyIDk1LjMzMDI2MTIzMDQ2ODc1IDEwMC4wMjYxMDAxNTg2OTE0Ij4mI3hhOzxzdHlsZSB0eXBlPSJ0ZXh0L2NzcyI+JiN4YTsJLnN0MHtmaWxsOiM0Mjg1ZjQ7fSYjeGE7CS5zdDF7ZmlsbDojYWVjYmZhO30mI3hhOwkuc3Qye2ZpbGw6IzY2OWRmNjt9JiN4YTs8L3N0eWxlPiYjeGE7CTxwYXRoIGNsYXNzPSJzdDAiIGQ9Ik03OS45NzEgNzcuNzE1bC03LjM1OSA3LjQ4OCA4LjYzOSA4LjQ5IDcuMzU5LTcuNDg4em0tNjUuMDk2LjA2MWwtOC42NDEgOC40OTIgNy4zNjEgNy40ODggOC42MzktOC40OXoiLz4mI3hhOwk8cGF0aCBjbGFzcz0ic3QxIiBkPSJNNzkuNTUzLjIyMWE1LjI1IDUuMjUgMCAwIDAtMy42NiA4Ljk4NEw4Ni4zODkgMTkuNThhNS4yNSA1LjI1IDAgMCAwIDguOTQxLTMuNzY1IDUuMjUgNS4yNSAwIDAgMC0xLjU2LTMuNzA0TDgzLjI3NSAxLjczOEE1LjI1IDUuMjUgMCAwIDAgNzkuNTUzLjIyMXpNMTUuOTE2IDBhNS4yNSA1LjI1IDAgMCAwLTMuNzIzIDEuNTE2TDEuNjk5IDExLjg5MWE1LjI1IDUuMjUgMCAwIDAtLjA0MyA3LjQyNCA1LjI1IDUuMjUgMCAwIDAgNy40MjQuMDQzTDE5LjU3NiA4Ljk4MkE1LjI1IDUuMjUgMCAwIDAgMTUuOTE2IDB6Ii8+JiN4YTsJPHBhdGggY2xhc3M9InN0MCIgZD0iTTQ4LjEzOCAyNi4yNGMxMy4zNDcgMCAyNS40MzIgMTEuMTM2IDI1LjMxIDI2LjQ4MSAwIDE1LjExLTEyLjI2NyAyNS42NzMtMjUuMTg5IDI1LjY3My0xMS4xNDkgMC0xOC4zMTctNS4xNzEtMjEuOTYtMTAuNzM4bDIxLjgzOS0xNS4wOTd6Ii8+JiN4YTsJPHBhdGggY2xhc3M9InN0MiIgZD0iTTgxLjI1IDkzLjY5M2w0LjY2NCA0LjU4NmE1LjI1IDUuMjUgMCAxIDAgNy4zNjEtNy40OWwtNC42NjYtNC41ODR6TTYuMjM0IDg2LjI2OEwxLjU3IDkwLjg1MWE1LjI1IDUuMjUgMCAwIDAtLjA2NSA3LjQyNCA1LjI1IDUuMjUgMCAwIDAgNy40MjQuMDY0bDQuNjY2LTQuNTg0ek00Ny4zNzEgNS41NzhDMjEuMzQ5IDUuNTc4LjE0NiAyNi43NzkuMTQ2IDUyLjgwMXMyMS4yMDMgNDcuMjI1IDQ3LjIyNSA0Ny4yMjUgNDcuMjI1LTIxLjIwMyA0Ny4yMjUtNDcuMjI1UzczLjM5MyA1LjU3OCA0Ny4zNzEgNS41Nzh6bTAgMTBhMzcuMTUgMzcuMTUgMCAwIDEgMzcuMjI1IDM3LjIyM2MwIDIwLjYxNy0xNi42MDcgMzcuMjI1LTM3LjIyNSAzNy4yMjVTMTAuMTQ2IDczLjQxOCAxMC4xNDYgNTIuODAxYTM3LjE1IDM3LjE1IDAgMCAxIDM3LjIyNS0zNy4yMjN6Ii8+JiN4YTs8L3N2Zz4=;" parent="1" vertex="1">
                    <mxGeometry x="39.5" y="552" width="40" height="42" as="geometry"/>
                </mxCell>
                <mxCell id="17" value="Project &lt;b&gt;-admin&lt;/b&gt;" style="sketch=0;points=[[0,0,0],[0.25,0,0],[0.5,0,0],[0.75,0,0],[1,0,0],[1,0.25,0],[1,0.5,0],[1,0.75,0],[1,1,0],[0.75,1,0],[0.5,1,0],[0.25,1,0],[0,1,0],[0,0.75,0],[0,0.5,0],[0,0.25,0]];rounded=1;absoluteArcSize=1;arcSize=2;html=1;strokeColor=none;gradientColor=none;shadow=0;dashed=0;fontSize=12;fontColor=#9E9E9E;align=left;verticalAlign=top;spacing=10;spacingTop=-4;fillColor=#F6F6F6;" parent="1" vertex="1">
                    <mxGeometry x="327" y="323" width="143" height="127" as="geometry"/>
                </mxCell>
                <mxCell id="18" value="Cloud&#10;IAM" style="sketch=0;html=1;verticalAlign=top;labelPosition=center;verticalLabelPosition=bottom;align=center;spacingTop=-6;fontSize=11;fontStyle=1;fontColor=#999999;shape=image;aspect=fixed;imageAspect=0;image=data:image/svg+xml,PHN2ZyB4bWxucz0iaHR0cDovL3d3dy53My5vcmcvMjAwMC9zdmciIHhtbG5zOnY9Imh0dHBzOi8vdmVjdGEuaW8vbmFubyIgd2lkdGg9IjE2LjQyMDAwMDA3NjI5Mzk0NSIgaGVpZ2h0PSIyMC4wNDk5OTkyMzcwNjA1NDciIGZpbGwtcnVsZT0iZXZlbm9kZCIgdmlld0JveD0iMCAwIDE2LjQyMDAwMDA3NjI5Mzk0NSAyMC4wNDk5OTkyMzcwNjA1NDciPiYjeGE7CTxzdHlsZSB0eXBlPSJ0ZXh0L2NzcyI+JiN4YTsJLnN0MHtmaWxsOiM0Mjg1ZjQ7fSYjeGE7CS5zdDF7ZmlsbDojNjY5ZGY2O30mI3hhOwk8L3N0eWxlPiYjeGE7CTxwYXRoIGNsYXNzPSJzdDEiIGQ9Ik04LjIxIDBMMCAzLjQydjUuNjNjMCA1LjA2IDMuNSA5LjggOC4yMSAxMSA0LjcxLTEuMTUgOC4yMS01Ljg5IDguMjEtMTAuOTVWMy40MnptMCAzLjc5YTIuNjMgMi42MyAwIDAgMSAxLjAwNSA1LjA2QTIuNjMgMi42MyAwIDAgMSA2LjM1IDQuNTZhMi42MyAyLjYzIDAgMCAxIDEuODYtLjc3em00LjExIDExLjE1YTguNjQgOC42NCAwIDAgMS00LjExIDIuOTMgOC42NCA4LjY0IDAgMCAxLTQuMTEtMi45M3YtMi4yNWMwLTEuNjcgMi43NC0yLjUyIDQuMTEtMi41MnM0LjExLjg1IDQuMTEgMi41MnoiLz4mI3hhOwk8cGF0aCBjbGFzcz0ic3QwIiBkPSJNOC4yMSAwdjMuNzlhMi42MyAyLjYzIDAgMSAxIDAgNS4yNnYxLjEyYzEuMzcgMCA0LjExLjg1IDQuMTEgMi41MnYyLjI1YTguNjQgOC42NCAwIDAgMS00LjExIDIuOTNWMjBjNC43MS0xLjE1IDguMjEtNS44OSA4LjIxLTEwLjk1VjMuNDJ6Ii8+JiN4YTs8L3N2Zz4=;" parent="1" vertex="1">
                    <mxGeometry x="353" y="363" width="34" height="42" as="geometry"/>
                </mxCell>
                <mxCell id="19" value="Cloud&#10;IAM" style="sketch=0;html=1;verticalAlign=top;labelPosition=center;verticalLabelPosition=bottom;align=center;spacingTop=-6;fontSize=11;fontStyle=1;fontColor=#999999;shape=image;aspect=fixed;imageAspect=0;image=data:image/svg+xml,PHN2ZyB4bWxucz0iaHR0cDovL3d3dy53My5vcmcvMjAwMC9zdmciIHhtbG5zOnY9Imh0dHBzOi8vdmVjdGEuaW8vbmFubyIgd2lkdGg9IjE2LjQyMDAwMDA3NjI5Mzk0NSIgaGVpZ2h0PSIyMC4wNDk5OTkyMzcwNjA1NDciIGZpbGwtcnVsZT0iZXZlbm9kZCIgdmlld0JveD0iMCAwIDE2LjQyMDAwMDA3NjI5Mzk0NSAyMC4wNDk5OTkyMzcwNjA1NDciPiYjeGE7CTxzdHlsZSB0eXBlPSJ0ZXh0L2NzcyI+JiN4YTsJLnN0MHtmaWxsOiM0Mjg1ZjQ7fSYjeGE7CS5zdDF7ZmlsbDojNjY5ZGY2O30mI3hhOwk8L3N0eWxlPiYjeGE7CTxwYXRoIGNsYXNzPSJzdDEiIGQ9Ik04LjIxIDBMMCAzLjQydjUuNjNjMCA1LjA2IDMuNSA5LjggOC4yMSAxMSA0LjcxLTEuMTUgOC4yMS01Ljg5IDguMjEtMTAuOTVWMy40MnptMCAzLjc5YTIuNjMgMi42MyAwIDAgMSAxLjAwNSA1LjA2QTIuNjMgMi42MyAwIDAgMSA2LjM1IDQuNTZhMi42MyAyLjYzIDAgMCAxIDEuODYtLjc3em00LjExIDExLjE1YTguNjQgOC42NCAwIDAgMS00LjExIDIuOTMgOC42NCA4LjY0IDAgMCAxLTQuMTEtMi45M3YtMi4yNWMwLTEuNjcgMi43NC0yLjUyIDQuMTEtMi41MnM0LjExLjg1IDQuMTEgMi41MnoiLz4mI3hhOwk8cGF0aCBjbGFzcz0ic3QwIiBkPSJNOC4yMSAwdjMuNzlhMi42MyAyLjYzIDAgMSAxIDAgNS4yNnYxLjEyYzEuMzcgMCA0LjExLjg1IDQuMTEgMi41MnYyLjI1YTguNjQgOC42NCAwIDAgMS00LjExIDIuOTNWMjBjNC43MS0xLjE1IDguMjEtNS44OSA4LjIxLTEwLjk1VjMuNDJ6Ii8+JiN4YTs8L3N2Zz4=;" parent="1" vertex="1">
                    <mxGeometry x="204" y="682.75" width="34" height="42" as="geometry"/>
                </mxCell>
                <mxCell id="20" value="BigQuery" style="sketch=0;html=1;verticalAlign=top;labelPosition=center;verticalLabelPosition=bottom;align=center;spacingTop=-6;fontSize=11;fontStyle=1;fontColor=#999999;shape=image;aspect=fixed;imageAspect=0;image=data:image/svg+xml,PHN2ZyB4bWxucz0iaHR0cDovL3d3dy53My5vcmcvMjAwMC9zdmciIHhtbG5zOnY9Imh0dHBzOi8vdmVjdGEuaW8vbmFubyIgd2lkdGg9IjIwLjAwMTA0NTIyNzA1MDc4IiBoZWlnaHQ9IjIwLjAwMTA0NTIyNzA1MDc4IiBmaWxsLXJ1bGU9ImV2ZW5vZGQiIHZpZXdCb3g9IjAgMCAyMC4wMDEwNDUyMjcwNTA3OCAyMC4wMDEwNDUyMjcwNTA3OCI+JiN4YTsJPHN0eWxlIHR5cGU9InRleHQvY3NzIj4mI3hhOwkuc3Qwe2ZpbGw6I2FlY2JmYTt9JiN4YTsJLnN0MXtmaWxsOiM2NjlkZjY7fSYjeGE7CS5zdDJ7ZmlsbDojNDI4NWY0O30mI3hhOwk8L3N0eWxlPiYjeGE7CTxwYXRoIGNsYXNzPSJzdDAiIGQ9Ik00LjczIDguODN2Mi42M2E0LjkxIDQuOTEgMCAwIDAgMS43MSAxLjc0VjguODN6Ii8+JiN4YTsJPHBhdGggY2xhc3M9InN0MSIgZD0iTTcuODkgNi40MXY3LjUzQTcuNjIgNy42MiAwIDAgMCA5IDE0YTggOCAwIDAgMCAxIDBWNi40MXoiLz4mI3hhOwk8cGF0aCBjbGFzcz0ic3QwIiBkPSJNMTEuNjQgOS44NnYzLjI5YTUgNSAwIDAgMCAxLjctMS44MlY5Ljg2eiIvPiYjeGE7CTxwYXRoIGNsYXNzPSJzdDIiIGQ9Ik0xNS43NCAxNC4zMmwtMS40MiAxLjQyYS40Mi40MiAwIDAgMCAwIC42bDMuNTQgMy41NGEuNDIuNDIgMCAwIDAgLjU5IDBsMS40My0xLjQzYS40Mi40MiAwIDAgMCAwLS41OWwtMy41NC0zLjU0YS40Mi40MiAwIDAgMC0uNiAwIi8+JiN4YTsJPHBhdGggY2xhc3M9InN0MSIgZD0iTTkgMGE5IDkgMCAxIDAgMCAxOEE5IDkgMCAxIDAgOSAwbTAgMTUuNjlhNi42OCA2LjY4IDAgMCAxIC4wMDctMTMuMzYgNi42OCA2LjY4IDAgMCAxIDQuNzI3IDExLjQwM0E2LjY4IDYuNjggMCAwIDEgOSAxNS42OSIvPiYjeGE7PC9zdmc+;" parent="1" vertex="1">
                    <mxGeometry x="351" y="685.75" width="42" height="42" as="geometry"/>
                </mxCell>
                <mxCell id="21" value="BigQuery" style="sketch=0;html=1;verticalAlign=top;labelPosition=center;verticalLabelPosition=bottom;align=center;spacingTop=-6;fontSize=11;fontStyle=1;fontColor=#999999;shape=image;aspect=fixed;imageAspect=0;image=data:image/svg+xml,PHN2ZyB4bWxucz0iaHR0cDovL3d3dy53My5vcmcvMjAwMC9zdmciIHhtbG5zOnY9Imh0dHBzOi8vdmVjdGEuaW8vbmFubyIgd2lkdGg9IjIwLjAwMTA0NTIyNzA1MDc4IiBoZWlnaHQ9IjIwLjAwMTA0NTIyNzA1MDc4IiBmaWxsLXJ1bGU9ImV2ZW5vZGQiIHZpZXdCb3g9IjAgMCAyMC4wMDEwNDUyMjcwNTA3OCAyMC4wMDEwNDUyMjcwNTA3OCI+JiN4YTsJPHN0eWxlIHR5cGU9InRleHQvY3NzIj4mI3hhOwkuc3Qwe2ZpbGw6I2FlY2JmYTt9JiN4YTsJLnN0MXtmaWxsOiM2NjlkZjY7fSYjeGE7CS5zdDJ7ZmlsbDojNDI4NWY0O30mI3hhOwk8L3N0eWxlPiYjeGE7CTxwYXRoIGNsYXNzPSJzdDAiIGQ9Ik00LjczIDguODN2Mi42M2E0LjkxIDQuOTEgMCAwIDAgMS43MSAxLjc0VjguODN6Ii8+JiN4YTsJPHBhdGggY2xhc3M9InN0MSIgZD0iTTcuODkgNi40MXY3LjUzQTcuNjIgNy42MiAwIDAgMCA5IDE0YTggOCAwIDAgMCAxIDBWNi40MXoiLz4mI3hhOwk8cGF0aCBjbGFzcz0ic3QwIiBkPSJNMTEuNjQgOS44NnYzLjI5YTUgNSAwIDAgMCAxLjctMS44MlY5Ljg2eiIvPiYjeGE7CTxwYXRoIGNsYXNzPSJzdDIiIGQ9Ik0xNS43NCAxNC4zMmwtMS40MiAxLjQyYS40Mi40MiAwIDAgMCAwIC42bDMuNTQgMy41NGEuNDIuNDIgMCAwIDAgLjU5IDBsMS40My0xLjQzYS40Mi40MiAwIDAgMCAwLS41OWwtMy41NC0zLjU0YS40Mi40MiAwIDAgMC0uNiAwIi8+JiN4YTsJPHBhdGggY2xhc3M9InN0MSIgZD0iTTkgMGE5IDkgMCAxIDAgMCAxOEE5IDkgMCAxIDAgOSAwbTAgMTUuNjlhNi42OCA2LjY4IDAgMCAxIC4wMDctMTMuMzYgNi42OCA2LjY4IDAgMCAxIDQuNzI3IDExLjQwM0E2LjY4IDYuNjggMCAwIDEgOSAxNS42OSIvPiYjeGE7PC9zdmc+;" parent="1" vertex="1">
                    <mxGeometry x="539" y="686.75" width="42" height="42" as="geometry"/>
                </mxCell>
                <mxCell id="22" value="BigQuery" style="sketch=0;html=1;verticalAlign=top;labelPosition=center;verticalLabelPosition=bottom;align=center;spacingTop=-6;fontSize=11;fontStyle=1;fontColor=#999999;shape=image;aspect=fixed;imageAspect=0;image=data:image/svg+xml,PHN2ZyB4bWxucz0iaHR0cDovL3d3dy53My5vcmcvMjAwMC9zdmciIHhtbG5zOnY9Imh0dHBzOi8vdmVjdGEuaW8vbmFubyIgd2lkdGg9IjIwLjAwMTA0NTIyNzA1MDc4IiBoZWlnaHQ9IjIwLjAwMTA0NTIyNzA1MDc4IiBmaWxsLXJ1bGU9ImV2ZW5vZGQiIHZpZXdCb3g9IjAgMCAyMC4wMDEwNDUyMjcwNTA3OCAyMC4wMDEwNDUyMjcwNTA3OCI+JiN4YTsJPHN0eWxlIHR5cGU9InRleHQvY3NzIj4mI3hhOwkuc3Qwe2ZpbGw6I2FlY2JmYTt9JiN4YTsJLnN0MXtmaWxsOiM2NjlkZjY7fSYjeGE7CS5zdDJ7ZmlsbDojNDI4NWY0O30mI3hhOwk8L3N0eWxlPiYjeGE7CTxwYXRoIGNsYXNzPSJzdDAiIGQ9Ik00LjczIDguODN2Mi42M2E0LjkxIDQuOTEgMCAwIDAgMS43MSAxLjc0VjguODN6Ii8+JiN4YTsJPHBhdGggY2xhc3M9InN0MSIgZD0iTTcuODkgNi40MXY3LjUzQTcuNjIgNy42MiAwIDAgMCA5IDE0YTggOCAwIDAgMCAxIDBWNi40MXoiLz4mI3hhOwk8cGF0aCBjbGFzcz0ic3QwIiBkPSJNMTEuNjQgOS44NnYzLjI5YTUgNSAwIDAgMCAxLjctMS44MlY5Ljg2eiIvPiYjeGE7CTxwYXRoIGNsYXNzPSJzdDIiIGQ9Ik0xNS43NCAxNC4zMmwtMS40MiAxLjQyYS40Mi40MiAwIDAgMCAwIC42bDMuNTQgMy41NGEuNDIuNDIgMCAwIDAgLjU5IDBsMS40My0xLjQzYS40Mi40MiAwIDAgMCAwLS41OWwtMy41NC0zLjU0YS40Mi40MiAwIDAgMC0uNiAwIi8+JiN4YTsJPHBhdGggY2xhc3M9InN0MSIgZD0iTTkgMGE5IDkgMCAxIDAgMCAxOEE5IDkgMCAxIDAgOSAwbTAgMTUuNjlhNi42OCA2LjY4IDAgMCAxIC4wMDctMTMuMzYgNi42OCA2LjY4IDAgMCAxIDQuNzI3IDExLjQwM0E2LjY4IDYuNjggMCAwIDEgOSAxNS42OSIvPiYjeGE7PC9zdmc+;" parent="1" vertex="1">
                    <mxGeometry x="688" y="689" width="42" height="42" as="geometry"/>
                </mxCell>
                <mxCell id="23" value="Cloud&#10;Storage" style="sketch=0;html=1;verticalAlign=top;labelPosition=center;verticalLabelPosition=bottom;align=center;spacingTop=-6;fontSize=11;fontStyle=1;fontColor=#999999;shape=image;aspect=fixed;imageAspect=0;image=data:image/svg+xml,PHN2ZyB4bWxucz0iaHR0cDovL3d3dy53My5vcmcvMjAwMC9zdmciIHhtbG5zOnY9Imh0dHBzOi8vdmVjdGEuaW8vbmFubyIgd2lkdGg9IjIwIiBoZWlnaHQ9IjE2IiB2aWV3Qm94PSIwIDAgMjAgMTYiPiYjeGE7CTxzdHlsZSB0eXBlPSJ0ZXh0L2NzcyI+JiN4YTsJLnN0MHtmaWxsOiM0Mjg1ZjQ7fSYjeGE7CS5zdDF7ZmlsbDojNjY5ZGY2O30mI3hhOwkuc3Qye2ZpbGw6I2FlY2JmYTt9JiN4YTsJLnN0M3tmaWxsOiNmZmY7fSYjeGE7CTwvc3R5bGU+JiN4YTsJPHBhdGggY2xhc3M9InN0MiIgZD0iTTAgMGgyMHY3SDB6Ii8+JiN4YTsJPHBhdGggY2xhc3M9InN0MSIgZD0iTTE4IDBoMnY3aC0yeiIvPiYjeGE7CTxwYXRoIGNsYXNzPSJzdDAiIGQ9Ik0xOCA3bDItN2gtMnoiLz4mI3hhOwk8cGF0aCBjbGFzcz0ic3QxIiBkPSJNMCAwaDJ2N0gweiIvPiYjeGE7CTxnIGNsYXNzPSJzdDMiPiYjeGE7CQk8cGF0aCBkPSJNNCAzaDZ2MUg0eiIvPiYjeGE7CQk8cmVjdCB4PSIxMyIgeT0iMiIgd2lkdGg9IjMiIGhlaWdodD0iMyIgcng9IjEuNSIvPiYjeGE7CTwvZz4mI3hhOwk8cGF0aCBjbGFzcz0ic3QyIiBkPSJNMCA5aDIwdjdIMHoiLz4mI3hhOwk8cGF0aCBjbGFzcz0ic3QxIiBkPSJNMTggOWgydjdoLTJ6Ii8+JiN4YTsJPHBhdGggY2xhc3M9InN0MCIgZD0iTTE4IDE2bDItN2gtMnoiLz4mI3hhOwk8cGF0aCBjbGFzcz0ic3QxIiBkPSJNMCA5aDJ2N0gweiIvPiYjeGE7CTxnIGNsYXNzPSJzdDMiPiYjeGE7CQk8cGF0aCBkPSJNNCAxMmg2djFINHoiLz4mI3hhOwkJPHJlY3QgeD0iMTMiIHk9IjExIiB3aWR0aD0iMyIgaGVpZ2h0PSIzIiByeD0iMS41Ii8+JiN4YTsJPC9nPiYjeGE7PC9zdmc+;" parent="1" vertex="1">
                    <mxGeometry x="341" y="542" width="42" height="34" as="geometry"/>
                </mxCell>
                <mxCell id="24" value="Cloud&#10;Logging" style="sketch=0;html=1;verticalAlign=top;labelPosition=center;verticalLabelPosition=bottom;align=center;spacingTop=-6;fontSize=11;fontStyle=1;fontColor=#999999;shape=image;aspect=fixed;imageAspect=0;image=data:image/svg+xml,PHN2ZyB4bWxucz0iaHR0cDovL3d3dy53My5vcmcvMjAwMC9zdmciIHhtbG5zOnY9Imh0dHBzOi8vdmVjdGEuaW8vbmFubyIgd2lkdGg9IjIwIiBoZWlnaHQ9IjE5IiB2aWV3Qm94PSIwIDAgMjAgMTkiPiYjeGE7CTxzdHlsZSB0eXBlPSJ0ZXh0L2NzcyI+JiN4YTsJLnN0MHtmaWxsOiM0Mjg1ZjQ7fSYjeGE7CS5zdDF7ZmlsbDojNjY5ZGY2O30mI3hhOwkuc3Qye2ZpbGw6I2FlY2JmYTt9JiN4YTsJPC9zdHlsZT4mI3hhOwk8ZyBjbGFzcz0ic3QwIj4mI3hhOwkJPHBhdGggZD0iTTQgOWg0djJINHptLTIgN2g2djJIMnoiLz4mI3hhOwkJPHBhdGggZD0iTTQgNEgydjEyaDJ6Ii8+JiN4YTsJPC9nPiYjeGE7CTxwYXRoIGNsYXNzPSJzdDEiIGQ9Ik0yMCAxSDd2NGgxM3ptMCA3SDd2NGgxM3ptMCA3SDd2NGgxM3oiLz4mI3hhOwk8cGF0aCBjbGFzcz0ic3QyIiBkPSJNNiAwSDB2Nmg2eiIvPiYjeGE7PC9zdmc+;" parent="1" vertex="1">
                    <mxGeometry x="228" y="356" width="42" height="40" as="geometry"/>
                </mxCell>
                <mxCell id="25" value="Pub/Sub" style="sketch=0;html=1;verticalAlign=top;labelPosition=center;verticalLabelPosition=bottom;align=center;spacingTop=-6;fontSize=11;fontStyle=1;fontColor=#999999;shape=image;aspect=fixed;imageAspect=0;image=data:image/svg+xml,PHN2ZyB4bWxucz0iaHR0cDovL3d3dy53My5vcmcvMjAwMC9zdmciIHhtbG5zOnY9Imh0dHBzOi8vdmVjdGEuaW8vbmFubyIgd2lkdGg9IjE4LjMxOTk5OTY5NDgyNDIyIiBoZWlnaHQ9IjIwLjAwMDAwMTkwNzM0ODYzMyIgdmlld0JveD0iMCAwIDE4LjMxOTk5OTY5NDgyNDIyIDIwLjAwMDAwMTkwNzM0ODYzMyI+JiN4YTsJPHN0eWxlIHR5cGU9InRleHQvY3NzIj4mI3hhOwkuc3Qwe2ZpbGw6IzY2OWRmNjt9JiN4YTsJLnN0MXtmaWxsOiM0Mjg1ZjQ7fSYjeGE7CS5zdDJ7ZmlsbDojYWVjYmZhO30mI3hhOwk8L3N0eWxlPiYjeGE7CTxkZWZzPiYjeGE7CQk8ZmlsdGVyIGlkPSJBIiB4PSI0LjY0IiB5PSI0LjE5IiB3aWR0aD0iMTQuNzMiIGhlaWdodD0iMTIuNzYiIGZpbHRlclVuaXRzPSJ1c2VyU3BhY2VPblVzZSIgY29sb3ItaW50ZXJwb2xhdGlvbi1maWx0ZXJzPSJzUkdCIj4mI3hhOwkJCTxmZUZsb29kIGZsb29kLWNvbG9yPSIjZmZmIi8+JiN4YTsJCQk8ZmVCbGVuZCBpbj0iU291cmNlR3JhcGhpYyIvPiYjeGE7CQk8L2ZpbHRlcj4mI3hhOwkJPG1hc2sgaWQ9IkIiIHg9IjQuNjQiIHk9IjQuMTkiIHdpZHRoPSIxNC43MyIgaGVpZ2h0PSIxMi43NiIgbWFza1VuaXRzPSJ1c2VyU3BhY2VPblVzZSI+JiN4YTsJCQk8Y2lyY2xlIGN4PSIxMiIgY3k9IjEyLjIzIiByPSIzLjU4IiBmaWx0ZXI9InVybCgjQSkiLz4mI3hhOwkJPC9tYXNrPiYjeGE7CTwvZGVmcz4mI3hhOwk8ZyBjbGFzcz0ic3QwIj4mI3hhOwkJPGNpcmNsZSBjeD0iMTYuMTMiIGN5PSI2LjIxIiByPSIxLjcyIi8+JiN4YTsJCTxjaXJjbGUgY3g9IjIuMTkiIGN5PSI2LjIxIiByPSIxLjcyIi8+JiN4YTsJCTxjaXJjbGUgY3g9IjkuMTYiIGN5PSIxOC4yOCIgcj0iMS43MiIvPiYjeGE7CTwvZz4mI3hhOwk8ZyBtYXNrPSJ1cmwoI0IpIiB0cmFuc2Zvcm09InRyYW5zbGF0ZSgtMi44NCAtMikiPiYjeGE7CQk8cGF0aCB0cmFuc2Zvcm09Im1hdHJpeCguNSAtLjg3IC44NyAuNSAtNC41OSAyMC41MykiIGQ9Ik0xNC42OSAxMC4yMmgxLjU5djguMDRoLTEuNTl6IiBjbGFzcz0ic3QxIi8+JiN4YTsJCTxwYXRoIHRyYW5zZm9ybT0icm90YXRlKDMzMCA4LjUyMyAxNC4yNDQpIiBkPSJNNC40OSAxMy40NWg4LjA0djEuNTlINC40OXoiIGNsYXNzPSJzdDEiLz4mI3hhOwkJPHBhdGggZD0iTTExLjIgNC4xOWgxLjU5djguMDRIMTEuMnoiIGNsYXNzPSJzdDEiLz4mI3hhOwk8L2c+JiN4YTsJPGcgY2xhc3M9InN0MiI+JiN4YTsJCTxjaXJjbGUgY3g9IjkuMTYiIGN5PSIxMC4yMyIgcj0iMi43OCIvPiYjeGE7CQk8Y2lyY2xlIGN4PSIyLjE5IiBjeT0iMTQuMjUiIHI9IjIuMTkiLz4mI3hhOwkJPGNpcmNsZSBjeD0iMTYuMTMiIGN5PSIxNC4yNSIgcj0iMi4xOSIvPiYjeGE7CQk8Y2lyY2xlIGN4PSI5LjE2IiBjeT0iMi4xOSIgcj0iMi4xOSIvPiYjeGE7CTwvZz4mI3hhOzwvc3ZnPg==;" parent="1" vertex="1">
                    <mxGeometry x="100" y="358" width="38" height="42" as="geometry"/>
                </mxCell>
                <mxCell id="26" value="Cloud&#10;Logging" style="sketch=0;html=1;verticalAlign=top;labelPosition=center;verticalLabelPosition=bottom;align=center;spacingTop=-6;fontSize=11;fontStyle=1;fontColor=#999999;shape=image;aspect=fixed;imageAspect=0;image=data:image/svg+xml,PHN2ZyB4bWxucz0iaHR0cDovL3d3dy53My5vcmcvMjAwMC9zdmciIHhtbG5zOnY9Imh0dHBzOi8vdmVjdGEuaW8vbmFubyIgd2lkdGg9IjIwIiBoZWlnaHQ9IjE5IiB2aWV3Qm94PSIwIDAgMjAgMTkiPiYjeGE7CTxzdHlsZSB0eXBlPSJ0ZXh0L2NzcyI+JiN4YTsJLnN0MHtmaWxsOiM0Mjg1ZjQ7fSYjeGE7CS5zdDF7ZmlsbDojNjY5ZGY2O30mI3hhOwkuc3Qye2ZpbGw6I2FlY2JmYTt9JiN4YTsJPC9zdHlsZT4mI3hhOwk8ZyBjbGFzcz0ic3QwIj4mI3hhOwkJPHBhdGggZD0iTTQgOWg0djJINHptLTIgN2g2djJIMnoiLz4mI3hhOwkJPHBhdGggZD0iTTQgNEgydjEyaDJ6Ii8+JiN4YTsJPC9nPiYjeGE7CTxwYXRoIGNsYXNzPSJzdDEiIGQ9Ik0yMCAxSDd2NGgxM3ptMCA3SDd2NGgxM3ptMCA3SDd2NGgxM3oiLz4mI3hhOwk8cGF0aCBjbGFzcz0ic3QyIiBkPSJNNiAwSDB2Nmg2eiIvPiYjeGE7PC9zdmc+;" parent="1" vertex="1">
                    <mxGeometry x="200.5" y="550" width="42" height="40" as="geometry"/>
                </mxCell>
                <mxCell id="27" value="Cloud&#10;Functions" style="sketch=0;html=1;verticalAlign=top;labelPosition=center;verticalLabelPosition=bottom;align=center;spacingTop=-6;fontSize=11;fontStyle=1;fontColor=#999999;shape=image;aspect=fixed;imageAspect=0;image=data:image/svg+xml,PHN2ZyB4bWxucz0iaHR0cDovL3d3dy53My5vcmcvMjAwMC9zdmciIHhtbG5zOnY9Imh0dHBzOi8vdmVjdGEuaW8vbmFubyIgd2lkdGg9IjIwIiBoZWlnaHQ9IjE5Ljk4OTk5OTc3MTExODE2NCIgdmlld0JveD0iMCAwIDIwIDE5Ljk4OTk5OTc3MTExODE2NCI+JiN4YTsJPHN0eWxlIHR5cGU9InRleHQvY3NzIj4mI3hhOwkuc3Qwe2ZpbGw6IzQyODVmNDt9JiN4YTsJLnN0MXtmaWxsOiM2NjlkZjY7fSYjeGE7CS5zdDJ7ZmlsbDojYWVjYmZhO30mI3hhOwk8L3N0eWxlPiYjeGE7CTxwYXRoIGNsYXNzPSJzdDEiIGQ9Ik0zIDMuOTlMMCA2LjQydjcuMTNsMyAyLjQ0eiIvPiYjeGE7CTxwYXRoIGNsYXNzPSJzdDAiIGQ9Ik0zIDMuOTlsLTMgNCAzLTJ6bS0zIDhsMyA0di0yeiIvPiYjeGE7CTxwYXRoIGNsYXNzPSJzdDIiIGQ9Ik0wIDE1Ljk5bDQgNCAyLTItNi02em0uMDEtOEw1Ljk5IDJsLTItMkwwIDMuOTl6Ii8+JiN4YTsJPHBhdGggY2xhc3M9InN0MSIgZD0iTTE3IDE2bDMtMi40MlY2LjQ0TDE3IDR6Ii8+JiN4YTsJPHBhdGggY2xhc3M9InN0MCIgZD0iTTE3IDE2bDMtNC0zIDJ6bTMtOGwtMy00djJ6Ii8+JiN4YTsJPGcgY2xhc3M9InN0MiI+JiN4YTsJCTxwYXRoIGQ9Ik0yMCA0bC00LTQtMiAyIDYgNnptLS4wMSA4bC01Ljk4IDUuOTkgMiAyTDIwIDE2eiIvPiYjeGE7CQk8Y2lyY2xlIGN4PSI2IiBjeT0iOS45OSIgcj0iMSIvPiYjeGE7CQk8Y2lyY2xlIGN4PSIxMCIgY3k9IjkuOTkiIHI9IjEiLz4mI3hhOwkJPGNpcmNsZSBjeD0iMTMuOTkiIGN5PSI5Ljk5IiByPSIxIi8+JiN4YTsJPC9nPiYjeGE7PC9zdmc+;" parent="1" vertex="1">
                    <mxGeometry x="162" y="362" width="42" height="34" as="geometry"/>
                </mxCell>
                <mxCell id="28" value="Cloud&#10;Functions" style="sketch=0;html=1;verticalAlign=top;labelPosition=center;verticalLabelPosition=bottom;align=center;spacingTop=-6;fontSize=11;fontStyle=1;fontColor=#999999;shape=image;aspect=fixed;imageAspect=0;image=data:image/svg+xml,PHN2ZyB4bWxucz0iaHR0cDovL3d3dy53My5vcmcvMjAwMC9zdmciIHhtbG5zOnY9Imh0dHBzOi8vdmVjdGEuaW8vbmFubyIgd2lkdGg9IjIwIiBoZWlnaHQ9IjE5Ljk4OTk5OTc3MTExODE2NCIgdmlld0JveD0iMCAwIDIwIDE5Ljk4OTk5OTc3MTExODE2NCI+JiN4YTsJPHN0eWxlIHR5cGU9InRleHQvY3NzIj4mI3hhOwkuc3Qwe2ZpbGw6IzQyODVmNDt9JiN4YTsJLnN0MXtmaWxsOiM2NjlkZjY7fSYjeGE7CS5zdDJ7ZmlsbDojYWVjYmZhO30mI3hhOwk8L3N0eWxlPiYjeGE7CTxwYXRoIGNsYXNzPSJzdDEiIGQ9Ik0zIDMuOTlMMCA2LjQydjcuMTNsMyAyLjQ0eiIvPiYjeGE7CTxwYXRoIGNsYXNzPSJzdDAiIGQ9Ik0zIDMuOTlsLTMgNCAzLTJ6bS0zIDhsMyA0di0yeiIvPiYjeGE7CTxwYXRoIGNsYXNzPSJzdDIiIGQ9Ik0wIDE1Ljk5bDQgNCAyLTItNi02em0uMDEtOEw1Ljk5IDJsLTItMkwwIDMuOTl6Ii8+JiN4YTsJPHBhdGggY2xhc3M9InN0MSIgZD0iTTE3IDE2bDMtMi40MlY2LjQ0TDE3IDR6Ii8+JiN4YTsJPHBhdGggY2xhc3M9InN0MCIgZD0iTTE3IDE2bDMtNC0zIDJ6bTMtOGwtMy00djJ6Ii8+JiN4YTsJPGcgY2xhc3M9InN0MiI+JiN4YTsJCTxwYXRoIGQ9Ik0yMCA0bC00LTQtMiAyIDYgNnptLS4wMSA4bC01Ljk4IDUuOTkgMiAyTDIwIDE2eiIvPiYjeGE7CQk8Y2lyY2xlIGN4PSI2IiBjeT0iOS45OSIgcj0iMSIvPiYjeGE7CQk8Y2lyY2xlIGN4PSIxMCIgY3k9IjkuOTkiIHI9IjEiLz4mI3hhOwkJPGNpcmNsZSBjeD0iMTMuOTkiIGN5PSI5Ljk5IiByPSIxIi8+JiN4YTsJPC9nPiYjeGE7PC9zdmc+;" parent="1" vertex="1">
                    <mxGeometry x="120.5" y="556" width="42" height="34" as="geometry"/>
                </mxCell>
                <mxCell id="29" value="BigQuery" style="sketch=0;html=1;verticalAlign=top;labelPosition=center;verticalLabelPosition=bottom;align=center;spacingTop=-6;fontSize=11;fontStyle=1;fontColor=#999999;shape=image;aspect=fixed;imageAspect=0;image=data:image/svg+xml,PHN2ZyB4bWxucz0iaHR0cDovL3d3dy53My5vcmcvMjAwMC9zdmciIHhtbG5zOnY9Imh0dHBzOi8vdmVjdGEuaW8vbmFubyIgd2lkdGg9IjIwLjAwMTA0NTIyNzA1MDc4IiBoZWlnaHQ9IjIwLjAwMTA0NTIyNzA1MDc4IiBmaWxsLXJ1bGU9ImV2ZW5vZGQiIHZpZXdCb3g9IjAgMCAyMC4wMDEwNDUyMjcwNTA3OCAyMC4wMDEwNDUyMjcwNTA3OCI+JiN4YTsJPHN0eWxlIHR5cGU9InRleHQvY3NzIj4mI3hhOwkuc3Qwe2ZpbGw6I2FlY2JmYTt9JiN4YTsJLnN0MXtmaWxsOiM2NjlkZjY7fSYjeGE7CS5zdDJ7ZmlsbDojNDI4NWY0O30mI3hhOwk8L3N0eWxlPiYjeGE7CTxwYXRoIGNsYXNzPSJzdDAiIGQ9Ik00LjczIDguODN2Mi42M2E0LjkxIDQuOTEgMCAwIDAgMS43MSAxLjc0VjguODN6Ii8+JiN4YTsJPHBhdGggY2xhc3M9InN0MSIgZD0iTTcuODkgNi40MXY3LjUzQTcuNjIgNy42MiAwIDAgMCA5IDE0YTggOCAwIDAgMCAxIDBWNi40MXoiLz4mI3hhOwk8cGF0aCBjbGFzcz0ic3QwIiBkPSJNMTEuNjQgOS44NnYzLjI5YTUgNSAwIDAgMCAxLjctMS44MlY5Ljg2eiIvPiYjeGE7CTxwYXRoIGNsYXNzPSJzdDIiIGQ9Ik0xNS43NCAxNC4zMmwtMS40MiAxLjQyYS40Mi40MiAwIDAgMCAwIC42bDMuNTQgMy41NGEuNDIuNDIgMCAwIDAgLjU5IDBsMS40My0xLjQzYS40Mi40MiAwIDAgMCAwLS41OWwtMy41NC0zLjU0YS40Mi40MiAwIDAgMC0uNiAwIi8+JiN4YTsJPHBhdGggY2xhc3M9InN0MSIgZD0iTTkgMGE5IDkgMCAxIDAgMCAxOEE5IDkgMCAxIDAgOSAwbTAgMTUuNjlhNi42OCA2LjY4IDAgMCAxIC4wMDctMTMuMzYgNi42OCA2LjY4IDAgMCAxIDQuNzI3IDExLjQwM0E2LjY4IDYuNjggMCAwIDEgOSAxNS42OSIvPiYjeGE7PC9zdmc+;" parent="1" vertex="1">
                    <mxGeometry x="120" y="682.75" width="42" height="42" as="geometry"/>
                </mxCell>
                <mxCell id="30" value="Pub/Sub" style="sketch=0;html=1;verticalAlign=top;labelPosition=center;verticalLabelPosition=bottom;align=center;spacingTop=-6;fontSize=11;fontStyle=1;fontColor=#999999;shape=image;aspect=fixed;imageAspect=0;image=data:image/svg+xml,PHN2ZyB4bWxucz0iaHR0cDovL3d3dy53My5vcmcvMjAwMC9zdmciIHhtbG5zOnY9Imh0dHBzOi8vdmVjdGEuaW8vbmFubyIgd2lkdGg9IjE4LjMxOTk5OTY5NDgyNDIyIiBoZWlnaHQ9IjIwLjAwMDAwMTkwNzM0ODYzMyIgdmlld0JveD0iMCAwIDE4LjMxOTk5OTY5NDgyNDIyIDIwLjAwMDAwMTkwNzM0ODYzMyI+JiN4YTsJPHN0eWxlIHR5cGU9InRleHQvY3NzIj4mI3hhOwkuc3Qwe2ZpbGw6IzY2OWRmNjt9JiN4YTsJLnN0MXtmaWxsOiM0Mjg1ZjQ7fSYjeGE7CS5zdDJ7ZmlsbDojYWVjYmZhO30mI3hhOwk8L3N0eWxlPiYjeGE7CTxkZWZzPiYjeGE7CQk8ZmlsdGVyIGlkPSJBIiB4PSI0LjY0IiB5PSI0LjE5IiB3aWR0aD0iMTQuNzMiIGhlaWdodD0iMTIuNzYiIGZpbHRlclVuaXRzPSJ1c2VyU3BhY2VPblVzZSIgY29sb3ItaW50ZXJwb2xhdGlvbi1maWx0ZXJzPSJzUkdCIj4mI3hhOwkJCTxmZUZsb29kIGZsb29kLWNvbG9yPSIjZmZmIi8+JiN4YTsJCQk8ZmVCbGVuZCBpbj0iU291cmNlR3JhcGhpYyIvPiYjeGE7CQk8L2ZpbHRlcj4mI3hhOwkJPG1hc2sgaWQ9IkIiIHg9IjQuNjQiIHk9IjQuMTkiIHdpZHRoPSIxNC43MyIgaGVpZ2h0PSIxMi43NiIgbWFza1VuaXRzPSJ1c2VyU3BhY2VPblVzZSI+JiN4YTsJCQk8Y2lyY2xlIGN4PSIxMiIgY3k9IjEyLjIzIiByPSIzLjU4IiBmaWx0ZXI9InVybCgjQSkiLz4mI3hhOwkJPC9tYXNrPiYjeGE7CTwvZGVmcz4mI3hhOwk8ZyBjbGFzcz0ic3QwIj4mI3hhOwkJPGNpcmNsZSBjeD0iMTYuMTMiIGN5PSI2LjIxIiByPSIxLjcyIi8+JiN4YTsJCTxjaXJjbGUgY3g9IjIuMTkiIGN5PSI2LjIxIiByPSIxLjcyIi8+JiN4YTsJCTxjaXJjbGUgY3g9IjkuMTYiIGN5PSIxOC4yOCIgcj0iMS43MiIvPiYjeGE7CTwvZz4mI3hhOwk8ZyBtYXNrPSJ1cmwoI0IpIiB0cmFuc2Zvcm09InRyYW5zbGF0ZSgtMi44NCAtMikiPiYjeGE7CQk8cGF0aCB0cmFuc2Zvcm09Im1hdHJpeCguNSAtLjg3IC44NyAuNSAtNC41OSAyMC41MykiIGQ9Ik0xNC42OSAxMC4yMmgxLjU5djguMDRoLTEuNTl6IiBjbGFzcz0ic3QxIi8+JiN4YTsJCTxwYXRoIHRyYW5zZm9ybT0icm90YXRlKDMzMCA4LjUyMyAxNC4yNDQpIiBkPSJNNC40OSAxMy40NWg4LjA0djEuNTlINC40OXoiIGNsYXNzPSJzdDEiLz4mI3hhOwkJPHBhdGggZD0iTTExLjIgNC4xOWgxLjU5djguMDRIMTEuMnoiIGNsYXNzPSJzdDEiLz4mI3hhOwk8L2c+JiN4YTsJPGcgY2xhc3M9InN0MiI+JiN4YTsJCTxjaXJjbGUgY3g9IjkuMTYiIGN5PSIxMC4yMyIgcj0iMi43OCIvPiYjeGE7CQk8Y2lyY2xlIGN4PSIyLjE5IiBjeT0iMTQuMjUiIHI9IjIuMTkiLz4mI3hhOwkJPGNpcmNsZSBjeD0iMTYuMTMiIGN5PSIxNC4yNSIgcj0iMi4xOSIvPiYjeGE7CQk8Y2lyY2xlIGN4PSI5LjE2IiBjeT0iMi4xOSIgcj0iMi4xOSIvPiYjeGE7CTwvZz4mI3hhOzwvc3ZnPg==;" parent="1" vertex="1">
                    <mxGeometry x="40" y="682.75" width="38" height="42" as="geometry"/>
                </mxCell>
                <mxCell id="31" value="Cloud&#10;Storage" style="sketch=0;html=1;verticalAlign=top;labelPosition=center;verticalLabelPosition=bottom;align=center;spacingTop=-6;fontSize=11;fontStyle=1;fontColor=#999999;shape=image;aspect=fixed;imageAspect=0;image=data:image/svg+xml,PHN2ZyB4bWxucz0iaHR0cDovL3d3dy53My5vcmcvMjAwMC9zdmciIHhtbG5zOnY9Imh0dHBzOi8vdmVjdGEuaW8vbmFubyIgd2lkdGg9IjIwIiBoZWlnaHQ9IjE2IiB2aWV3Qm94PSIwIDAgMjAgMTYiPiYjeGE7CTxzdHlsZSB0eXBlPSJ0ZXh0L2NzcyI+JiN4YTsJLnN0MHtmaWxsOiM0Mjg1ZjQ7fSYjeGE7CS5zdDF7ZmlsbDojNjY5ZGY2O30mI3hhOwkuc3Qye2ZpbGw6I2FlY2JmYTt9JiN4YTsJLnN0M3tmaWxsOiNmZmY7fSYjeGE7CTwvc3R5bGU+JiN4YTsJPHBhdGggY2xhc3M9InN0MiIgZD0iTTAgMGgyMHY3SDB6Ii8+JiN4YTsJPHBhdGggY2xhc3M9InN0MSIgZD0iTTE4IDBoMnY3aC0yeiIvPiYjeGE7CTxwYXRoIGNsYXNzPSJzdDAiIGQ9Ik0xOCA3bDItN2gtMnoiLz4mI3hhOwk8cGF0aCBjbGFzcz0ic3QxIiBkPSJNMCAwaDJ2N0gweiIvPiYjeGE7CTxnIGNsYXNzPSJzdDMiPiYjeGE7CQk8cGF0aCBkPSJNNCAzaDZ2MUg0eiIvPiYjeGE7CQk8cmVjdCB4PSIxMyIgeT0iMiIgd2lkdGg9IjMiIGhlaWdodD0iMyIgcng9IjEuNSIvPiYjeGE7CTwvZz4mI3hhOwk8cGF0aCBjbGFzcz0ic3QyIiBkPSJNMCA5aDIwdjdIMHoiLz4mI3hhOwk8cGF0aCBjbGFzcz0ic3QxIiBkPSJNMTggOWgydjdoLTJ6Ii8+JiN4YTsJPHBhdGggY2xhc3M9InN0MCIgZD0iTTE4IDE2bDItN2gtMnoiLz4mI3hhOwk8cGF0aCBjbGFzcz0ic3QxIiBkPSJNMCA5aDJ2N0gweiIvPiYjeGE7CTxnIGNsYXNzPSJzdDMiPiYjeGE7CQk8cGF0aCBkPSJNNCAxMmg2djFINHoiLz4mI3hhOwkJPHJlY3QgeD0iMTMiIHk9IjExIiB3aWR0aD0iMyIgaGVpZ2h0PSIzIiByeD0iMS41Ii8+JiN4YTsJPC9nPiYjeGE7PC9zdmc+;" parent="1" vertex="1">
                    <mxGeometry x="600" y="685.75" width="42" height="34" as="geometry"/>
                </mxCell>
            </root>
        </mxGraphModel>
    </diagram>
    <diagram name="Detailed Architecture" id="N1_iJr2oXc_XQxQ4s7sl">
        <mxGraphModel dx="1734" dy="497" grid="1" gridSize="10" guides="1" tooltips="1" connect="1" arrows="1" fold="1" page="1" pageScale="1" pageWidth="827" pageHeight="1169" math="0" shadow="0">
            <root>
                <mxCell id="TfbpHEirQnWEi919bVSF-0"/>
                <mxCell id="TfbpHEirQnWEi919bVSF-1" parent="TfbpHEirQnWEi919bVSF-0"/>
                <mxCell id="yVsQXxWx4Skl1uM3VvdF-43" value="&lt;b&gt;Consumers&lt;/b&gt;" style="sketch=0;points=[[0,0,0],[0.25,0,0],[0.5,0,0],[0.75,0,0],[1,0,0],[1,0.25,0],[1,0.5,0],[1,0.75,0],[1,1,0],[0.75,1,0],[0.5,1,0],[0.25,1,0],[0,1,0],[0,0.75,0],[0,0.5,0],[0,0.25,0]];rounded=1;absoluteArcSize=1;arcSize=29;html=1;strokeColor=none;gradientColor=none;shadow=0;dashed=0;fontSize=12;fontColor=#9E9E9E;align=left;verticalAlign=top;spacing=10;spacingTop=-4;fillColor=#F1F8E9;" parent="TfbpHEirQnWEi919bVSF-1" vertex="1">
                    <mxGeometry x="120" y="860" width="360" height="110" as="geometry"/>
                </mxCell>
                <mxCell id="TfbpHEirQnWEi919bVSF-2" value="&lt;b&gt;Region : Europe&lt;/b&gt;" style="sketch=0;points=[[0,0,0],[0.25,0,0],[0.5,0,0],[0.75,0,0],[1,0,0],[1,0.25,0],[1,0.5,0],[1,0.75,0],[1,1,0],[0.75,1,0],[0.5,1,0],[0.25,1,0],[0,1,0],[0,0.75,0],[0,0.5,0],[0,0.25,0]];rounded=1;absoluteArcSize=1;arcSize=2;html=1;strokeColor=none;gradientColor=none;shadow=0;dashed=0;fontSize=12;fontColor=#9E9E9E;align=left;verticalAlign=top;spacing=10;spacingTop=-4;fillColor=#ECEFF1;" parent="TfbpHEirQnWEi919bVSF-1" vertex="1">
                    <mxGeometry x="-300" y="289" width="810" height="531" as="geometry"/>
                </mxCell>
                <mxCell id="TfbpHEirQnWEi919bVSF-5" value="Project &lt;b&gt;-eltpipelines&lt;/b&gt;" style="sketch=0;points=[[0,0,0],[0.25,0,0],[0.5,0,0],[0.75,0,0],[1,0,0],[1,0.25,0],[1,0.5,0],[1,0.75,0],[1,1,0],[0.75,1,0],[0.5,1,0],[0.25,1,0],[0,1,0],[0,0.75,0],[0,0.5,0],[0,0.25,0]];rounded=1;absoluteArcSize=1;arcSize=2;html=1;strokeColor=none;gradientColor=none;shadow=0;dashed=0;fontSize=12;fontColor=#9E9E9E;align=left;verticalAlign=top;spacing=10;spacingTop=-4;fillColor=#F6F6F6;" parent="TfbpHEirQnWEi919bVSF-1" vertex="1">
                    <mxGeometry x="-260" y="320" width="551" height="150" as="geometry"/>
                </mxCell>
                <mxCell id="yVsQXxWx4Skl1uM3VvdF-28" value="&lt;i&gt;other services used&lt;/i&gt;" style="sketch=0;points=[[0,0,0],[0.25,0,0],[0.5,0,0],[0.75,0,0],[1,0,0],[1,0.25,0],[1,0.5,0],[1,0.75,0],[1,1,0],[0.75,1,0],[0.5,1,0],[0.25,1,0],[0,1,0],[0,0.75,0],[0,0.5,0],[0,0.25,0]];rounded=1;absoluteArcSize=1;arcSize=2;html=1;strokeColor=none;gradientColor=none;shadow=0;dashed=0;fontSize=12;fontColor=#9E9E9E;align=left;verticalAlign=top;spacing=10;spacingTop=-4;fillColor=#F1F8E9;" parent="TfbpHEirQnWEi919bVSF-1" vertex="1">
                    <mxGeometry x="120" y="350.5" width="163.55" height="110" as="geometry"/>
                </mxCell>
                <mxCell id="TfbpHEirQnWEi919bVSF-4" value="Access" style="rounded=1;absoluteArcSize=1;arcSize=2;html=1;strokeColor=none;gradientColor=none;shadow=0;dashed=1;strokeColor=#4284F3;fontSize=12;fontColor=#9E9E9E;align=left;verticalAlign=top;spacing=10;spacingTop=-4;fillColor=none;dashPattern=1 2;strokeWidth=2;" parent="TfbpHEirQnWEi919bVSF-1" vertex="1">
                    <mxGeometry x="120" y="480" width="350" height="320" as="geometry"/>
                </mxCell>
                <mxCell id="1hRJxX3yk22vpqEc0cFK-2" value="-pipeline" style="sketch=0;points=[[0,0,0],[0.25,0,0],[0.5,0,0],[0.75,0,0],[1,0,0],[1,0.25,0],[1,0.5,0],[1,0.75,0],[1,1,0],[0.75,1,0],[0.5,1,0],[0.25,1,0],[0,1,0],[0,0.75,0],[0,0.5,0],[0,0.25,0]];rounded=1;absoluteArcSize=1;arcSize=29;html=1;strokeColor=none;gradientColor=none;shadow=0;dashed=0;fontSize=12;fontColor=#9E9E9E;align=left;verticalAlign=top;spacing=10;spacingTop=-4;fillColor=#F1F8E9;" parent="TfbpHEirQnWEi919bVSF-1" vertex="1">
                    <mxGeometry x="-160" y="350" width="270" height="110" as="geometry"/>
                </mxCell>
                <mxCell id="TfbpHEirQnWEi919bVSF-7" value="Project &lt;b&gt;-datastore&lt;/b&gt;" style="sketch=0;points=[[0,0,0],[0.25,0,0],[0.5,0,0],[0.75,0,0],[1,0,0],[1,0.25,0],[1,0.5,0],[1,0.75,0],[1,1,0],[0.75,1,0],[0.5,1,0],[0.25,1,0],[0,1,0],[0,0.75,0],[0,0.5,0],[0,0.25,0]];rounded=1;absoluteArcSize=1;arcSize=2;html=1;strokeColor=none;gradientColor=none;shadow=0;dashed=0;fontSize=12;fontColor=#9E9E9E;align=left;verticalAlign=top;spacing=10;spacingTop=-4;fillColor=#F6F6F6;" parent="TfbpHEirQnWEi919bVSF-1" vertex="1">
                    <mxGeometry x="133" y="510" width="140" height="276.25" as="geometry"/>
                </mxCell>
                <mxCell id="TfbpHEirQnWEi919bVSF-8" value="Project &lt;b&gt;-datamarts&lt;/b&gt;" style="sketch=0;points=[[0,0,0],[0.25,0,0],[0.5,0,0],[0.75,0,0],[1,0,0],[1,0.25,0],[1,0.5,0],[1,0.75,0],[1,1,0],[0.75,1,0],[0.5,1,0],[0.25,1,0],[0,1,0],[0,0.75,0],[0,0.5,0],[0,0.25,0]];rounded=1;absoluteArcSize=1;arcSize=2;html=1;strokeColor=none;gradientColor=none;shadow=0;dashed=0;fontSize=12;fontColor=#9E9E9E;align=left;verticalAlign=top;spacing=10;spacingTop=-4;fillColor=#F6F6F6;" parent="TfbpHEirQnWEi919bVSF-1" vertex="1">
                    <mxGeometry x="307.5" y="510" width="140" height="275.25" as="geometry"/>
                </mxCell>
                <mxCell id="TfbpHEirQnWEi919bVSF-11" value="Project&amp;nbsp;&lt;b&gt;-datalake&lt;/b&gt;" style="sketch=0;points=[[0,0,0],[0.25,0,0],[0.5,0,0],[0.75,0,0],[1,0,0],[1,0.25,0],[1,0.5,0],[1,0.75,0],[1,1,0],[0.75,1,0],[0.5,1,0],[0.25,1,0],[0,1,0],[0,0.75,0],[0,0.5,0],[0,0.25,0]];rounded=1;absoluteArcSize=1;arcSize=2;html=1;strokeColor=none;gradientColor=none;shadow=0;dashed=0;fontSize=12;fontColor=#9E9E9E;align=left;verticalAlign=top;spacing=10;spacingTop=-4;fillColor=#F6F6F6;" parent="TfbpHEirQnWEi919bVSF-1" vertex="1">
                    <mxGeometry x="-260" y="510" width="190" height="140" as="geometry"/>
                </mxCell>
                <mxCell id="1hRJxX3yk22vpqEc0cFK-6" style="edgeStyle=none;html=1;entryX=0;entryY=0.5;entryDx=0;entryDy=0;strokeColor=#B3B3B3;" parent="TfbpHEirQnWEi919bVSF-1" source="TfbpHEirQnWEi919bVSF-12" target="TfbpHEirQnWEi919bVSF-24" edge="1">
                    <mxGeometry relative="1" as="geometry"/>
                </mxCell>
                <mxCell id="TfbpHEirQnWEi919bVSF-12" value="Cloud&lt;br&gt;Scheduler" style="sketch=0;html=1;verticalAlign=top;labelPosition=center;verticalLabelPosition=bottom;align=center;spacingTop=-6;fontSize=11;fontStyle=1;fontColor=#999999;shape=image;aspect=fixed;imageAspect=0;image=data:image/svg+xml,PHN2ZyB4bWxucz0iaHR0cDovL3d3dy53My5vcmcvMjAwMC9zdmciIHhtbG5zOnY9Imh0dHBzOi8vdmVjdGEuaW8vbmFubyIgd2lkdGg9IjM2MC4zMDM3NjY4NjA4MzYzIiBoZWlnaHQ9IjM3OC4wNTExNTgwNzc0MDg4IiB2aWV3Qm94PSItMC4wMDAxNjI0MjExNDM2MTM3NTU3IC0wLjAwMDEwMDAwNTk0OTIwNzExNTkyIDk1LjMzMDI2MTIzMDQ2ODc1IDEwMC4wMjYxMDAxNTg2OTE0Ij4mI3hhOzxzdHlsZSB0eXBlPSJ0ZXh0L2NzcyI+JiN4YTsJLnN0MHtmaWxsOiM0Mjg1ZjQ7fSYjeGE7CS5zdDF7ZmlsbDojYWVjYmZhO30mI3hhOwkuc3Qye2ZpbGw6IzY2OWRmNjt9JiN4YTs8L3N0eWxlPiYjeGE7CTxwYXRoIGNsYXNzPSJzdDAiIGQ9Ik03OS45NzEgNzcuNzE1bC03LjM1OSA3LjQ4OCA4LjYzOSA4LjQ5IDcuMzU5LTcuNDg4em0tNjUuMDk2LjA2MWwtOC42NDEgOC40OTIgNy4zNjEgNy40ODggOC42MzktOC40OXoiLz4mI3hhOwk8cGF0aCBjbGFzcz0ic3QxIiBkPSJNNzkuNTUzLjIyMWE1LjI1IDUuMjUgMCAwIDAtMy42NiA4Ljk4NEw4Ni4zODkgMTkuNThhNS4yNSA1LjI1IDAgMCAwIDguOTQxLTMuNzY1IDUuMjUgNS4yNSAwIDAgMC0xLjU2LTMuNzA0TDgzLjI3NSAxLjczOEE1LjI1IDUuMjUgMCAwIDAgNzkuNTUzLjIyMXpNMTUuOTE2IDBhNS4yNSA1LjI1IDAgMCAwLTMuNzIzIDEuNTE2TDEuNjk5IDExLjg5MWE1LjI1IDUuMjUgMCAwIDAtLjA0MyA3LjQyNCA1LjI1IDUuMjUgMCAwIDAgNy40MjQuMDQzTDE5LjU3NiA4Ljk4MkE1LjI1IDUuMjUgMCAwIDAgMTUuOTE2IDB6Ii8+JiN4YTsJPHBhdGggY2xhc3M9InN0MCIgZD0iTTQ4LjEzOCAyNi4yNGMxMy4zNDcgMCAyNS40MzIgMTEuMTM2IDI1LjMxIDI2LjQ4MSAwIDE1LjExLTEyLjI2NyAyNS42NzMtMjUuMTg5IDI1LjY3My0xMS4xNDkgMC0xOC4zMTctNS4xNzEtMjEuOTYtMTAuNzM4bDIxLjgzOS0xNS4wOTd6Ii8+JiN4YTsJPHBhdGggY2xhc3M9InN0MiIgZD0iTTgxLjI1IDkzLjY5M2w0LjY2NCA0LjU4NmE1LjI1IDUuMjUgMCAxIDAgNy4zNjEtNy40OWwtNC42NjYtNC41ODR6TTYuMjM0IDg2LjI2OEwxLjU3IDkwLjg1MWE1LjI1IDUuMjUgMCAwIDAtLjA2NSA3LjQyNCA1LjI1IDUuMjUgMCAwIDAgNy40MjQuMDY0bDQuNjY2LTQuNTg0ek00Ny4zNzEgNS41NzhDMjEuMzQ5IDUuNTc4LjE0NiAyNi43NzkuMTQ2IDUyLjgwMXMyMS4yMDMgNDcuMjI1IDQ3LjIyNSA0Ny4yMjUgNDcuMjI1LTIxLjIwMyA0Ny4yMjUtNDcuMjI1UzczLjM5MyA1LjU3OCA0Ny4zNzEgNS41Nzh6bTAgMTBhMzcuMTUgMzcuMTUgMCAwIDEgMzcuMjI1IDM3LjIyM2MwIDIwLjYxNy0xNi42MDcgMzcuMjI1LTM3LjIyNSAzNy4yMjVTMTAuMTQ2IDczLjQxOCAxMC4xNDYgNTIuODAxYTM3LjE1IDM3LjE1IDAgMCAxIDM3LjIyNS0zNy4yMjN6Ii8+JiN4YTs8L3N2Zz4=;" parent="TfbpHEirQnWEi919bVSF-1" vertex="1">
                    <mxGeometry x="-146.17000000000002" y="379" width="20.95" height="22" as="geometry"/>
                </mxCell>
                <mxCell id="TfbpHEirQnWEi919bVSF-14" value="Project &lt;b&gt;-admin&lt;/b&gt;" style="sketch=0;points=[[0,0,0],[0.25,0,0],[0.5,0,0],[0.75,0,0],[1,0,0],[1,0.25,0],[1,0.5,0],[1,0.75,0],[1,1,0],[0.75,1,0],[0.5,1,0],[0.25,1,0],[0,1,0],[0,0.75,0],[0,0.5,0],[0,0.25,0]];rounded=1;absoluteArcSize=1;arcSize=2;html=1;strokeColor=none;gradientColor=none;shadow=0;dashed=0;fontSize=12;fontColor=#9E9E9E;align=left;verticalAlign=top;spacing=10;spacingTop=-4;fillColor=#F6F6F6;" parent="TfbpHEirQnWEi919bVSF-1" vertex="1">
                    <mxGeometry x="327" y="323" width="143" height="147" as="geometry"/>
                </mxCell>
                <mxCell id="TfbpHEirQnWEi919bVSF-15" value="Groups" style="sketch=0;html=1;verticalAlign=top;labelPosition=center;verticalLabelPosition=bottom;align=center;spacingTop=-6;fontSize=11;fontStyle=1;fontColor=#999999;shape=image;aspect=fixed;imageAspect=0;image=data:image/svg+xml,PHN2ZyB4bWxucz0iaHR0cDovL3d3dy53My5vcmcvMjAwMC9zdmciIHhtbG5zOnY9Imh0dHBzOi8vdmVjdGEuaW8vbmFubyIgd2lkdGg9IjE2LjQyMDAwMDA3NjI5Mzk0NSIgaGVpZ2h0PSIyMC4wNDk5OTkyMzcwNjA1NDciIGZpbGwtcnVsZT0iZXZlbm9kZCIgdmlld0JveD0iMCAwIDE2LjQyMDAwMDA3NjI5Mzk0NSAyMC4wNDk5OTkyMzcwNjA1NDciPiYjeGE7CTxzdHlsZSB0eXBlPSJ0ZXh0L2NzcyI+JiN4YTsJLnN0MHtmaWxsOiM0Mjg1ZjQ7fSYjeGE7CS5zdDF7ZmlsbDojNjY5ZGY2O30mI3hhOwk8L3N0eWxlPiYjeGE7CTxwYXRoIGNsYXNzPSJzdDEiIGQ9Ik04LjIxIDBMMCAzLjQydjUuNjNjMCA1LjA2IDMuNSA5LjggOC4yMSAxMSA0LjcxLTEuMTUgOC4yMS01Ljg5IDguMjEtMTAuOTVWMy40MnptMCAzLjc5YTIuNjMgMi42MyAwIDAgMSAxLjAwNSA1LjA2QTIuNjMgMi42MyAwIDAgMSA2LjM1IDQuNTZhMi42MyAyLjYzIDAgMCAxIDEuODYtLjc3em00LjExIDExLjE1YTguNjQgOC42NCAwIDAgMS00LjExIDIuOTMgOC42NCA4LjY0IDAgMCAxLTQuMTEtMi45M3YtMi4yNWMwLTEuNjcgMi43NC0yLjUyIDQuMTEtMi41MnM0LjExLjg1IDQuMTEgMi41MnoiLz4mI3hhOwk8cGF0aCBjbGFzcz0ic3QwIiBkPSJNOC4yMSAwdjMuNzlhMi42MyAyLjYzIDAgMSAxIDAgNS4yNnYxLjEyYzEuMzcgMCA0LjExLjg1IDQuMTEgMi41MnYyLjI1YTguNjQgOC42NCAwIDAgMS00LjExIDIuOTNWMjBjNC43MS0xLjE1IDguMjEtNS44OSA4LjIxLTEwLjk1VjMuNDJ6Ii8+JiN4YTs8L3N2Zz4=;" parent="TfbpHEirQnWEi919bVSF-1" vertex="1">
                    <mxGeometry x="353" y="363" width="34" height="42" as="geometry"/>
                </mxCell>
                <mxCell id="TfbpHEirQnWEi919bVSF-20" value="-landing&lt;br&gt;zone" style="sketch=0;html=1;verticalAlign=top;labelPosition=center;verticalLabelPosition=bottom;align=center;spacingTop=-6;fontSize=11;fontStyle=1;fontColor=#999999;shape=image;aspect=fixed;imageAspect=0;image=data:image/svg+xml,PHN2ZyB4bWxucz0iaHR0cDovL3d3dy53My5vcmcvMjAwMC9zdmciIHhtbG5zOnY9Imh0dHBzOi8vdmVjdGEuaW8vbmFubyIgd2lkdGg9IjIwIiBoZWlnaHQ9IjE2IiB2aWV3Qm94PSIwIDAgMjAgMTYiPiYjeGE7CTxzdHlsZSB0eXBlPSJ0ZXh0L2NzcyI+JiN4YTsJLnN0MHtmaWxsOiM0Mjg1ZjQ7fSYjeGE7CS5zdDF7ZmlsbDojNjY5ZGY2O30mI3hhOwkuc3Qye2ZpbGw6I2FlY2JmYTt9JiN4YTsJLnN0M3tmaWxsOiNmZmY7fSYjeGE7CTwvc3R5bGU+JiN4YTsJPHBhdGggY2xhc3M9InN0MiIgZD0iTTAgMGgyMHY3SDB6Ii8+JiN4YTsJPHBhdGggY2xhc3M9InN0MSIgZD0iTTE4IDBoMnY3aC0yeiIvPiYjeGE7CTxwYXRoIGNsYXNzPSJzdDAiIGQ9Ik0xOCA3bDItN2gtMnoiLz4mI3hhOwk8cGF0aCBjbGFzcz0ic3QxIiBkPSJNMCAwaDJ2N0gweiIvPiYjeGE7CTxnIGNsYXNzPSJzdDMiPiYjeGE7CQk8cGF0aCBkPSJNNCAzaDZ2MUg0eiIvPiYjeGE7CQk8cmVjdCB4PSIxMyIgeT0iMiIgd2lkdGg9IjMiIGhlaWdodD0iMyIgcng9IjEuNSIvPiYjeGE7CTwvZz4mI3hhOwk8cGF0aCBjbGFzcz0ic3QyIiBkPSJNMCA5aDIwdjdIMHoiLz4mI3hhOwk8cGF0aCBjbGFzcz0ic3QxIiBkPSJNMTggOWgydjdoLTJ6Ii8+JiN4YTsJPHBhdGggY2xhc3M9InN0MCIgZD0iTTE4IDE2bDItN2gtMnoiLz4mI3hhOwk8cGF0aCBjbGFzcz0ic3QxIiBkPSJNMCA5aDJ2N0gweiIvPiYjeGE7CTxnIGNsYXNzPSJzdDMiPiYjeGE7CQk8cGF0aCBkPSJNNCAxMmg2djFINHoiLz4mI3hhOwkJPHJlY3QgeD0iMTMiIHk9IjExIiB3aWR0aD0iMyIgaGVpZ2h0PSIzIiByeD0iMS41Ii8+JiN4YTsJPC9nPiYjeGE7PC9zdmc+;" parent="TfbpHEirQnWEi919bVSF-1" vertex="1">
                    <mxGeometry x="-226" y="566" width="32.12" height="26" as="geometry"/>
                </mxCell>
                <mxCell id="TfbpHEirQnWEi919bVSF-21" value="Cloud&#10;Logging" style="sketch=0;html=1;verticalAlign=top;labelPosition=center;verticalLabelPosition=bottom;align=center;spacingTop=-6;fontSize=11;fontStyle=1;fontColor=#999999;shape=image;aspect=fixed;imageAspect=0;image=data:image/svg+xml,PHN2ZyB4bWxucz0iaHR0cDovL3d3dy53My5vcmcvMjAwMC9zdmciIHhtbG5zOnY9Imh0dHBzOi8vdmVjdGEuaW8vbmFubyIgd2lkdGg9IjIwIiBoZWlnaHQ9IjE5IiB2aWV3Qm94PSIwIDAgMjAgMTkiPiYjeGE7CTxzdHlsZSB0eXBlPSJ0ZXh0L2NzcyI+JiN4YTsJLnN0MHtmaWxsOiM0Mjg1ZjQ7fSYjeGE7CS5zdDF7ZmlsbDojNjY5ZGY2O30mI3hhOwkuc3Qye2ZpbGw6I2FlY2JmYTt9JiN4YTsJPC9zdHlsZT4mI3hhOwk8ZyBjbGFzcz0ic3QwIj4mI3hhOwkJPHBhdGggZD0iTTQgOWg0djJINHptLTIgN2g2djJIMnoiLz4mI3hhOwkJPHBhdGggZD0iTTQgNEgydjEyaDJ6Ii8+JiN4YTsJPC9nPiYjeGE7CTxwYXRoIGNsYXNzPSJzdDEiIGQ9Ik0yMCAxSDd2NGgxM3ptMCA3SDd2NGgxM3ptMCA3SDd2NGgxM3oiLz4mI3hhOwk8cGF0aCBjbGFzcz0ic3QyIiBkPSJNNiAwSDB2Nmg2eiIvPiYjeGE7PC9zdmc+;" parent="TfbpHEirQnWEi919bVSF-1" vertex="1">
                    <mxGeometry x="142" y="389.25" width="19.95" height="19" as="geometry"/>
                </mxCell>
                <mxCell id="1hRJxX3yk22vpqEc0cFK-8" style="edgeStyle=none;html=1;entryX=0;entryY=0.75;entryDx=0;entryDy=0;strokeColor=#B3B3B3;exitX=1;exitY=0.5;exitDx=0;exitDy=0;" parent="TfbpHEirQnWEi919bVSF-1" source="TfbpHEirQnWEi919bVSF-22" target="1hRJxX3yk22vpqEc0cFK-1" edge="1">
                    <mxGeometry relative="1" as="geometry">
                        <mxPoint x="45.549999999999955" y="390.44910382144064" as="sourcePoint"/>
                        <mxPoint x="93.82999999999993" y="388" as="targetPoint"/>
                    </mxGeometry>
                </mxCell>
                <mxCell id="TfbpHEirQnWEi919bVSF-22" value="dbt-topic" style="sketch=0;html=1;verticalAlign=top;labelPosition=center;verticalLabelPosition=bottom;align=center;spacingTop=-6;fontSize=11;fontStyle=1;fontColor=#999999;shape=image;aspect=fixed;imageAspect=0;image=data:image/svg+xml,PHN2ZyB4bWxucz0iaHR0cDovL3d3dy53My5vcmcvMjAwMC9zdmciIHhtbG5zOnY9Imh0dHBzOi8vdmVjdGEuaW8vbmFubyIgd2lkdGg9IjE4LjMxOTk5OTY5NDgyNDIyIiBoZWlnaHQ9IjIwLjAwMDAwMTkwNzM0ODYzMyIgdmlld0JveD0iMCAwIDE4LjMxOTk5OTY5NDgyNDIyIDIwLjAwMDAwMTkwNzM0ODYzMyI+JiN4YTsJPHN0eWxlIHR5cGU9InRleHQvY3NzIj4mI3hhOwkuc3Qwe2ZpbGw6IzY2OWRmNjt9JiN4YTsJLnN0MXtmaWxsOiM0Mjg1ZjQ7fSYjeGE7CS5zdDJ7ZmlsbDojYWVjYmZhO30mI3hhOwk8L3N0eWxlPiYjeGE7CTxkZWZzPiYjeGE7CQk8ZmlsdGVyIGlkPSJBIiB4PSI0LjY0IiB5PSI0LjE5IiB3aWR0aD0iMTQuNzMiIGhlaWdodD0iMTIuNzYiIGZpbHRlclVuaXRzPSJ1c2VyU3BhY2VPblVzZSIgY29sb3ItaW50ZXJwb2xhdGlvbi1maWx0ZXJzPSJzUkdCIj4mI3hhOwkJCTxmZUZsb29kIGZsb29kLWNvbG9yPSIjZmZmIi8+JiN4YTsJCQk8ZmVCbGVuZCBpbj0iU291cmNlR3JhcGhpYyIvPiYjeGE7CQk8L2ZpbHRlcj4mI3hhOwkJPG1hc2sgaWQ9IkIiIHg9IjQuNjQiIHk9IjQuMTkiIHdpZHRoPSIxNC43MyIgaGVpZ2h0PSIxMi43NiIgbWFza1VuaXRzPSJ1c2VyU3BhY2VPblVzZSI+JiN4YTsJCQk8Y2lyY2xlIGN4PSIxMiIgY3k9IjEyLjIzIiByPSIzLjU4IiBmaWx0ZXI9InVybCgjQSkiLz4mI3hhOwkJPC9tYXNrPiYjeGE7CTwvZGVmcz4mI3hhOwk8ZyBjbGFzcz0ic3QwIj4mI3hhOwkJPGNpcmNsZSBjeD0iMTYuMTMiIGN5PSI2LjIxIiByPSIxLjcyIi8+JiN4YTsJCTxjaXJjbGUgY3g9IjIuMTkiIGN5PSI2LjIxIiByPSIxLjcyIi8+JiN4YTsJCTxjaXJjbGUgY3g9IjkuMTYiIGN5PSIxOC4yOCIgcj0iMS43MiIvPiYjeGE7CTwvZz4mI3hhOwk8ZyBtYXNrPSJ1cmwoI0IpIiB0cmFuc2Zvcm09InRyYW5zbGF0ZSgtMi44NCAtMikiPiYjeGE7CQk8cGF0aCB0cmFuc2Zvcm09Im1hdHJpeCguNSAtLjg3IC44NyAuNSAtNC41OSAyMC41MykiIGQ9Ik0xNC42OSAxMC4yMmgxLjU5djguMDRoLTEuNTl6IiBjbGFzcz0ic3QxIi8+JiN4YTsJCTxwYXRoIHRyYW5zZm9ybT0icm90YXRlKDMzMCA4LjUyMyAxNC4yNDQpIiBkPSJNNC40OSAxMy40NWg4LjA0djEuNTlINC40OXoiIGNsYXNzPSJzdDEiLz4mI3hhOwkJPHBhdGggZD0iTTExLjIgNC4xOWgxLjU5djguMDRIMTEuMnoiIGNsYXNzPSJzdDEiLz4mI3hhOwk8L2c+JiN4YTsJPGcgY2xhc3M9InN0MiI+JiN4YTsJCTxjaXJjbGUgY3g9IjkuMTYiIGN5PSIxMC4yMyIgcj0iMi43OCIvPiYjeGE7CQk8Y2lyY2xlIGN4PSIyLjE5IiBjeT0iMTQuMjUiIHI9IjIuMTkiLz4mI3hhOwkJPGNpcmNsZSBjeD0iMTYuMTMiIGN5PSIxNC4yNSIgcj0iMi4xOSIvPiYjeGE7CQk8Y2lyY2xlIGN4PSI5LjE2IiBjeT0iMi4xOSIgcj0iMi4xOSIvPiYjeGE7CTwvZz4mI3hhOzwvc3ZnPg==;" parent="TfbpHEirQnWEi919bVSF-1" vertex="1">
                    <mxGeometry x="-8.170000000000002" y="379" width="21.72" height="24" as="geometry"/>
                </mxCell>
                <mxCell id="1hRJxX3yk22vpqEc0cFK-7" style="edgeStyle=none;html=1;strokeColor=#B3B3B3;" parent="TfbpHEirQnWEi919bVSF-1" source="TfbpHEirQnWEi919bVSF-24" target="TfbpHEirQnWEi919bVSF-22" edge="1">
                    <mxGeometry relative="1" as="geometry"/>
                </mxCell>
                <mxCell id="yVsQXxWx4Skl1uM3VvdF-30" style="edgeStyle=none;html=1;entryX=0;entryY=0.75;entryDx=0;entryDy=0;entryPerimeter=0;strokeColor=#B3B3B3;fontSize=9;fontColor=default;dashed=1;dashPattern=1 4;" parent="TfbpHEirQnWEi919bVSF-1" source="TfbpHEirQnWEi919bVSF-24" target="yVsQXxWx4Skl1uM3VvdF-28" edge="1">
                    <mxGeometry relative="1" as="geometry">
                        <Array as="points">
                            <mxPoint x="-66" y="433"/>
                        </Array>
                    </mxGeometry>
                </mxCell>
                <mxCell id="yVsQXxWx4Skl1uM3VvdF-35" style="edgeStyle=orthogonalEdgeStyle;html=1;entryX=0.5;entryY=0;entryDx=0;entryDy=0;entryPerimeter=0;dashed=1;dashPattern=1 4;strokeColor=#B3B3B3;fontSize=11;fontColor=#999999;" parent="TfbpHEirQnWEi919bVSF-1" source="TfbpHEirQnWEi919bVSF-24" target="TfbpHEirQnWEi919bVSF-11" edge="1">
                    <mxGeometry relative="1" as="geometry"/>
                </mxCell>
                <mxCell id="TfbpHEirQnWEi919bVSF-24" value="extract-load" style="sketch=0;html=1;verticalAlign=top;labelPosition=center;verticalLabelPosition=bottom;align=center;spacingTop=-6;fontSize=11;fontStyle=1;fontColor=#999999;shape=image;aspect=fixed;imageAspect=0;image=data:image/svg+xml,PHN2ZyB4bWxucz0iaHR0cDovL3d3dy53My5vcmcvMjAwMC9zdmciIHhtbG5zOnY9Imh0dHBzOi8vdmVjdGEuaW8vbmFubyIgd2lkdGg9IjIwIiBoZWlnaHQ9IjE5Ljk4OTk5OTc3MTExODE2NCIgdmlld0JveD0iMCAwIDIwIDE5Ljk4OTk5OTc3MTExODE2NCI+JiN4YTsJPHN0eWxlIHR5cGU9InRleHQvY3NzIj4mI3hhOwkuc3Qwe2ZpbGw6IzQyODVmNDt9JiN4YTsJLnN0MXtmaWxsOiM2NjlkZjY7fSYjeGE7CS5zdDJ7ZmlsbDojYWVjYmZhO30mI3hhOwk8L3N0eWxlPiYjeGE7CTxwYXRoIGNsYXNzPSJzdDEiIGQ9Ik0zIDMuOTlMMCA2LjQydjcuMTNsMyAyLjQ0eiIvPiYjeGE7CTxwYXRoIGNsYXNzPSJzdDAiIGQ9Ik0zIDMuOTlsLTMgNCAzLTJ6bS0zIDhsMyA0di0yeiIvPiYjeGE7CTxwYXRoIGNsYXNzPSJzdDIiIGQ9Ik0wIDE1Ljk5bDQgNCAyLTItNi02em0uMDEtOEw1Ljk5IDJsLTItMkwwIDMuOTl6Ii8+JiN4YTsJPHBhdGggY2xhc3M9InN0MSIgZD0iTTE3IDE2bDMtMi40MlY2LjQ0TDE3IDR6Ii8+JiN4YTsJPHBhdGggY2xhc3M9InN0MCIgZD0iTTE3IDE2bDMtNC0zIDJ6bTMtOGwtMy00djJ6Ii8+JiN4YTsJPGcgY2xhc3M9InN0MiI+JiN4YTsJCTxwYXRoIGQ9Ik0yMCA0bC00LTQtMiAyIDYgNnptLS4wMSA4bC01Ljk4IDUuOTkgMiAyTDIwIDE2eiIvPiYjeGE7CQk8Y2lyY2xlIGN4PSI2IiBjeT0iOS45OSIgcj0iMSIvPiYjeGE7CQk8Y2lyY2xlIGN4PSIxMCIgY3k9IjkuOTkiIHI9IjEiLz4mI3hhOwkJPGNpcmNsZSBjeD0iMTMuOTkiIGN5PSI5Ljk5IiByPSIxIi8+JiN4YTsJPC9nPiYjeGE7PC9zdmc+;" parent="TfbpHEirQnWEi919bVSF-1" vertex="1">
                    <mxGeometry x="-77.17" y="382" width="22.23" height="18" as="geometry"/>
                </mxCell>
                <mxCell id="1hRJxX3yk22vpqEc0cFK-4" style="edgeStyle=none;html=1;entryX=0;entryY=0.5;entryDx=0;entryDy=0;entryPerimeter=0;strokeColor=#B3B3B3;" parent="TfbpHEirQnWEi919bVSF-1" source="bfyQtZN23VpY5fUUTL48-0" target="1hRJxX3yk22vpqEc0cFK-2" edge="1">
                    <mxGeometry relative="1" as="geometry"/>
                </mxCell>
                <mxCell id="bfyQtZN23VpY5fUUTL48-0" value="Workflows" style="sketch=0;html=1;verticalAlign=top;labelPosition=center;verticalLabelPosition=bottom;align=center;spacingTop=-6;fontSize=11;fontStyle=1;fontColor=#999999;shape=image;aspect=fixed;imageAspect=0;image=data:image/svg+xml,PHN2ZyB4bWxucz0iaHR0cDovL3d3dy53My5vcmcvMjAwMC9zdmciIHhtbG5zOnhsaW5rPSJodHRwOi8vd3d3LnczLm9yZy8xOTk5L3hsaW5rIiB4bWxuczp2PSJodHRwczovL3ZlY3RhLmlvL25hbm8iIHdpZHRoPSIxOS41MSIgaGVpZ2h0PSIxOS41IiB2aWV3Qm94PSIwIDAgMTkuNTEgMTkuNSI+JiN4YTsJPHBhdGggZD0iTTE3LjI2IDE3LjgxaC0uN3YtMS41aC43YS43Ni43NiAwIDAgMCAuNzUtLjc1di00LjMxYS43Ni43NiAwIDAgMC0uNzUtLjc1aC0zLjYxVjloMy42MWEyLjI1IDIuMjUgMCAwIDEgMi4yNSAyLjI1djQuMzFhMi4yNSAyLjI1IDAgMCAxLTIuMjUgMi4yNXptLTcuOTUgMGgtNC45di0xLjVoNC45eiIgZmlsbD0iIzQyODVmNCIvPiYjeGE7CTxwYXRoIGZpbGw9IiM2NjlkZjYiIGZpbGwtcnVsZT0iZXZlbm9kZCIgZD0iTTUuODggMTAuNUgyLjI2QTIuMjUgMi4yNSAwIDAgMSAuMDEgOC4yNVYzLjk0YTIuMjUgMi4yNSAwIDAgMSAyLjI1LTIuMjVoMXYxLjVoLTFhLjc1Ljc1IDAgMCAwLS43NS43NXY0LjMxYS43Ni43NiAwIDAgMCAuNzUuNzVoMy42MnoiLz4mI3hhOwk8cGF0aCBmaWxsPSIjNDI4NWY0IiBkPSJNMTUuMDYgMy4xOUg5LjU4di0xLjVoNS40OHoiLz4mI3hhOwk8cGF0aCBmaWxsPSIjYWVjYmZhIiBkPSJNNi4zOSAxLjY5Vi4xOWgtM2ExLjEzIDEuMTMgMCAwIDAtMS4xMyAxLjEydjIuMjVhMS4xMyAxLjEzIDAgMCAwIDEuMTMgMS4xM2gzdi0xLjVIMy43NnYtMS41eiIvPiYjeGE7CTxwYXRoIGZpbGw9IiM2NjlkZjYiIGZpbGwtcnVsZT0iZXZlbm9kZCIgZD0iTTEwLjUxIDEuMzF2Mi4yNWExLjEzIDEuMTMgMCAwIDEtMS4xMiAxLjEzaC0zdi0xLjVoMi42MnYtMS41SDYuMzlWLjE5aDNhMS4xMiAxLjEyIDAgMCAxIDEuMTIgMS4xMnoiLz4mI3hhOwk8cGF0aCBmaWxsPSIjYWVjYmZhIiBkPSJNMTcuMDcgNC44OGEyLjQ0IDIuNDQgMCAxIDEgMi40NC0yLjQ0IDIuNDUgMi40NSAwIDAgMS0yLjQ0IDIuNDR6bTAtMy4zOGEuOTQuOTQgMCAxIDAgLjk0Ljk0Ljk0Ljk0IDAgMCAwLS45NC0uOTR6Ii8+JiN4YTsJPHVzZSB4bGluazpocmVmPSIjQiIgZmlsbD0iIzlhYTBhNiIvPiYjeGE7CTxnIGZpbGw9IiNhZWNiZmEiPiYjeGE7CQk8dXNlIHhsaW5rOmhyZWY9IiNCIi8+JiN4YTsJCTxwYXRoIGQ9Ik0xMy4xMiAxNi4zMnYtMS41aC0zQTEuMTMgMS4xMyAwIDAgMCA5IDE1Ljk1djIuMjVhMS4xMiAxLjEyIDAgMCAwIDEuMTIgMS4xMmgzdi0xLjVIMTAuNXYtMS41eiIvPiYjeGE7CTwvZz4mI3hhOwk8cGF0aCBmaWxsPSIjNjY5ZGY2IiBmaWxsLXJ1bGU9ImV2ZW5vZGQiIGQ9Ik0xNy4yNSAxNS45NXYyLjI1YTEuMTMgMS4xMyAwIDAgMS0xLjEzIDEuMTJoLTN2LTEuNWgyLjY0di0xLjVoLTIuNjR2LTEuNWgzYTEuMTQgMS4xNCAwIDAgMSAxLjEzIDEuMTN6Ii8+JiN4YTsJPHBhdGggZmlsbD0iI2FlY2JmYSIgZD0iTTkuNzYgOVY3LjVoLTNhMS4xMyAxLjEzIDAgMCAwLTEuMTMgMS4xMnYyLjI1QTEuMTMgMS4xMyAwIDAgMCA2Ljc2IDEyaDN2LTEuNUg3LjEzVjl6Ii8+JiN4YTsJPHBhdGggZmlsbD0iIzY2OWRmNiIgZmlsbC1ydWxlPSJldmVub2RkIiBkPSJNMTMuODggOC42MnYyLjI1QTEuMTMgMS4xMyAwIDAgMSAxMi43NiAxMmgtM3YtMS41aDIuNjJWOUg5Ljc2VjcuNWgzYTEuMTIgMS4xMiAwIDAgMSAxLjEyIDEuMTJ6Ii8+JiN4YTsJPGRlZnM+JiN4YTsJCTxwYXRoIGlkPSJCIiBkPSJNMi40NSAxOS41YTIuNDQgMi40NCAwIDEgMSAyLjQzLTIuNDQgMi40NCAyLjQ0IDAgMCAxLTIuNDMgMi40NHptMC0zLjM4YS45NC45NCAwIDEgMCAuOTMuOTQuOTQuOTQgMCAwIDAtLjkzLS45NHoiLz4mI3hhOwk8L2RlZnM+JiN4YTs8L3N2Zz4=;" parent="TfbpHEirQnWEi919bVSF-1" vertex="1">
                    <mxGeometry x="-230" y="389.25" width="31" height="31" as="geometry"/>
                </mxCell>
                <mxCell id="yVsQXxWx4Skl1uM3VvdF-31" style="edgeStyle=orthogonalEdgeStyle;html=1;entryX=0;entryY=0.25;entryDx=0;entryDy=0;entryPerimeter=0;strokeColor=#B3B3B3;fontSize=9;fontColor=default;exitX=0.5;exitY=0;exitDx=0;exitDy=0;dashed=1;dashPattern=1 4;" parent="TfbpHEirQnWEi919bVSF-1" source="1hRJxX3yk22vpqEc0cFK-1" target="yVsQXxWx4Skl1uM3VvdF-28" edge="1">
                    <mxGeometry relative="1" as="geometry">
                        <Array as="points">
                            <mxPoint x="72" y="350"/>
                            <mxPoint x="100" y="350"/>
                            <mxPoint x="100" y="378"/>
                        </Array>
                    </mxGeometry>
                </mxCell>
                <mxCell id="yVsQXxWx4Skl1uM3VvdF-36" style="edgeStyle=orthogonalEdgeStyle;html=1;entryX=0.5;entryY=0;entryDx=0;entryDy=0;entryPerimeter=0;dashed=1;dashPattern=1 4;strokeColor=#B3B3B3;fontSize=11;fontColor=#999999;" parent="TfbpHEirQnWEi919bVSF-1" source="1hRJxX3yk22vpqEc0cFK-1" target="1hRJxX3yk22vpqEc0cFK-17" edge="1">
                    <mxGeometry relative="1" as="geometry"/>
                </mxCell>
                <mxCell id="yVsQXxWx4Skl1uM3VvdF-37" style="edgeStyle=orthogonalEdgeStyle;html=1;entryX=0.5;entryY=0;entryDx=0;entryDy=0;entryPerimeter=0;dashed=1;dashPattern=1 4;strokeColor=#B3B3B3;fontSize=11;fontColor=#999999;" parent="TfbpHEirQnWEi919bVSF-1" source="1hRJxX3yk22vpqEc0cFK-1" target="TfbpHEirQnWEi919bVSF-7" edge="1">
                    <mxGeometry relative="1" as="geometry">
                        <Array as="points">
                            <mxPoint x="72" y="450"/>
                            <mxPoint x="203" y="450"/>
                        </Array>
                    </mxGeometry>
                </mxCell>
                <mxCell id="yVsQXxWx4Skl1uM3VvdF-38" style="edgeStyle=orthogonalEdgeStyle;html=1;entryX=0.5;entryY=0;entryDx=0;entryDy=0;entryPerimeter=0;dashed=1;dashPattern=1 4;strokeColor=#B3B3B3;fontSize=11;fontColor=#999999;" parent="TfbpHEirQnWEi919bVSF-1" source="1hRJxX3yk22vpqEc0cFK-1" target="TfbpHEirQnWEi919bVSF-8" edge="1">
                    <mxGeometry relative="1" as="geometry">
                        <Array as="points">
                            <mxPoint x="72" y="450"/>
                            <mxPoint x="377" y="450"/>
                        </Array>
                    </mxGeometry>
                </mxCell>
                <mxCell id="1hRJxX3yk22vpqEc0cFK-1" value="transform" style="sketch=0;html=1;verticalAlign=top;labelPosition=center;verticalLabelPosition=bottom;align=center;spacingTop=-6;fontSize=11;fontStyle=1;fontColor=#999999;shape=image;aspect=fixed;imageAspect=0;image=data:image/svg+xml,PHN2ZyB4bWxucz0iaHR0cDovL3d3dy53My5vcmcvMjAwMC9zdmciIHhtbG5zOnY9Imh0dHBzOi8vdmVjdGEuaW8vbmFubyIgd2lkdGg9IjIwIiBoZWlnaHQ9IjE5Ljk4OTk5OTc3MTExODE2NCIgdmlld0JveD0iMCAwIDIwIDE5Ljk4OTk5OTc3MTExODE2NCI+JiN4YTsJPHN0eWxlIHR5cGU9InRleHQvY3NzIj4mI3hhOwkuc3Qwe2ZpbGw6IzQyODVmNDt9JiN4YTsJLnN0MXtmaWxsOiM2NjlkZjY7fSYjeGE7CS5zdDJ7ZmlsbDojYWVjYmZhO30mI3hhOwk8L3N0eWxlPiYjeGE7CTxwYXRoIGNsYXNzPSJzdDEiIGQ9Ik0zIDMuOTlMMCA2LjQydjcuMTNsMyAyLjQ0eiIvPiYjeGE7CTxwYXRoIGNsYXNzPSJzdDAiIGQ9Ik0zIDMuOTlsLTMgNCAzLTJ6bS0zIDhsMyA0di0yeiIvPiYjeGE7CTxwYXRoIGNsYXNzPSJzdDIiIGQ9Ik0wIDE1Ljk5bDQgNCAyLTItNi02em0uMDEtOEw1Ljk5IDJsLTItMkwwIDMuOTl6Ii8+JiN4YTsJPHBhdGggY2xhc3M9InN0MSIgZD0iTTE3IDE2bDMtMi40MlY2LjQ0TDE3IDR6Ii8+JiN4YTsJPHBhdGggY2xhc3M9InN0MCIgZD0iTTE3IDE2bDMtNC0zIDJ6bTMtOGwtMy00djJ6Ii8+JiN4YTsJPGcgY2xhc3M9InN0MiI+JiN4YTsJCTxwYXRoIGQ9Ik0yMCA0bC00LTQtMiAyIDYgNnptLS4wMSA4bC01Ljk4IDUuOTkgMiAyTDIwIDE2eiIvPiYjeGE7CQk8Y2lyY2xlIGN4PSI2IiBjeT0iOS45OSIgcj0iMSIvPiYjeGE7CQk8Y2lyY2xlIGN4PSIxMCIgY3k9IjkuOTkiIHI9IjEiLz4mI3hhOwkJPGNpcmNsZSBjeD0iMTMuOTkiIGN5PSI5Ljk5IiByPSIxIi8+JiN4YTsJPC9nPiYjeGE7PC9zdmc+;" parent="TfbpHEirQnWEi919bVSF-1" vertex="1">
                    <mxGeometry x="60.83" y="378" width="22.23" height="18" as="geometry"/>
                </mxCell>
                <mxCell id="1hRJxX3yk22vpqEc0cFK-3" style="edgeStyle=none;html=1;exitX=0;exitY=0.5;exitDx=0;exitDy=0;entryX=0;entryY=0.75;entryDx=0;entryDy=0;" parent="TfbpHEirQnWEi919bVSF-1" source="bfyQtZN23VpY5fUUTL48-0" target="bfyQtZN23VpY5fUUTL48-0" edge="1">
                    <mxGeometry relative="1" as="geometry"/>
                </mxCell>
                <mxCell id="1hRJxX3yk22vpqEc0cFK-15" value="-datalake" style="sketch=0;html=1;verticalAlign=top;labelPosition=center;verticalLabelPosition=bottom;align=center;spacingTop=-6;fontSize=11;fontStyle=1;fontColor=#999999;shape=image;aspect=fixed;imageAspect=0;image=data:image/svg+xml,PHN2ZyB4bWxucz0iaHR0cDovL3d3dy53My5vcmcvMjAwMC9zdmciIHhtbG5zOnY9Imh0dHBzOi8vdmVjdGEuaW8vbmFubyIgd2lkdGg9IjIwIiBoZWlnaHQ9IjE2IiB2aWV3Qm94PSIwIDAgMjAgMTYiPiYjeGE7CTxzdHlsZSB0eXBlPSJ0ZXh0L2NzcyI+JiN4YTsJLnN0MHtmaWxsOiM0Mjg1ZjQ7fSYjeGE7CS5zdDF7ZmlsbDojNjY5ZGY2O30mI3hhOwkuc3Qye2ZpbGw6I2FlY2JmYTt9JiN4YTsJLnN0M3tmaWxsOiNmZmY7fSYjeGE7CTwvc3R5bGU+JiN4YTsJPHBhdGggY2xhc3M9InN0MiIgZD0iTTAgMGgyMHY3SDB6Ii8+JiN4YTsJPHBhdGggY2xhc3M9InN0MSIgZD0iTTE4IDBoMnY3aC0yeiIvPiYjeGE7CTxwYXRoIGNsYXNzPSJzdDAiIGQ9Ik0xOCA3bDItN2gtMnoiLz4mI3hhOwk8cGF0aCBjbGFzcz0ic3QxIiBkPSJNMCAwaDJ2N0gweiIvPiYjeGE7CTxnIGNsYXNzPSJzdDMiPiYjeGE7CQk8cGF0aCBkPSJNNCAzaDZ2MUg0eiIvPiYjeGE7CQk8cmVjdCB4PSIxMyIgeT0iMiIgd2lkdGg9IjMiIGhlaWdodD0iMyIgcng9IjEuNSIvPiYjeGE7CTwvZz4mI3hhOwk8cGF0aCBjbGFzcz0ic3QyIiBkPSJNMCA5aDIwdjdIMHoiLz4mI3hhOwk8cGF0aCBjbGFzcz0ic3QxIiBkPSJNMTggOWgydjdoLTJ6Ii8+JiN4YTsJPHBhdGggY2xhc3M9InN0MCIgZD0iTTE4IDE2bDItN2gtMnoiLz4mI3hhOwk8cGF0aCBjbGFzcz0ic3QxIiBkPSJNMCA5aDJ2N0gweiIvPiYjeGE7CTxnIGNsYXNzPSJzdDMiPiYjeGE7CQk8cGF0aCBkPSJNNCAxMmg2djFINHoiLz4mI3hhOwkJPHJlY3QgeD0iMTMiIHk9IjExIiB3aWR0aD0iMyIgaGVpZ2h0PSIzIiByeD0iMS41Ii8+JiN4YTsJPC9nPiYjeGE7PC9zdmc+;" parent="TfbpHEirQnWEi919bVSF-1" vertex="1">
                    <mxGeometry x="-135.29" y="566" width="32.12" height="26" as="geometry"/>
                </mxCell>
                <mxCell id="1hRJxX3yk22vpqEc0cFK-17" value="Project &lt;b&gt;-dataprep&lt;/b&gt;" style="sketch=0;points=[[0,0,0],[0.25,0,0],[0.5,0,0],[0.75,0,0],[1,0,0],[1,0.25,0],[1,0.5,0],[1,0.75,0],[1,1,0],[0.75,1,0],[0.5,1,0],[0.25,1,0],[0,1,0],[0,0.75,0],[0,0.5,0],[0,0.25,0]];rounded=1;absoluteArcSize=1;arcSize=2;html=1;strokeColor=none;gradientColor=none;shadow=0;dashed=0;fontSize=12;fontColor=#9E9E9E;align=left;verticalAlign=top;spacing=10;spacingTop=-4;fillColor=#F6F6F6;" parent="TfbpHEirQnWEi919bVSF-1" vertex="1">
                    <mxGeometry x="-40" y="507.38" width="140" height="275.25" as="geometry"/>
                </mxCell>
                <mxCell id="hgcnLY1OyyFnD-L1eOLC-0" style="edgeStyle=none;html=1;entryX=1;entryY=0.5;entryDx=0;entryDy=0;shape=link;" edge="1" parent="TfbpHEirQnWEi919bVSF-1" source="1hRJxX3yk22vpqEc0cFK-18" target="1hRJxX3yk22vpqEc0cFK-15">
                    <mxGeometry relative="1" as="geometry"/>
                </mxCell>
                <mxCell id="1hRJxX3yk22vpqEc0cFK-18" value="" style="strokeColor=#dddddd;shadow=1;strokeWidth=1;rounded=1;absoluteArcSize=1;arcSize=2;fillColor=none;" parent="TfbpHEirQnWEi919bVSF-1" vertex="1">
                    <mxGeometry x="-30" y="550" width="120" height="60" as="geometry"/>
                </mxCell>
                <mxCell id="1hRJxX3yk22vpqEc0cFK-19" value="&lt;font color=&quot;#000000&quot;&gt;raw&lt;br&gt;&lt;/font&gt;BigQuery&lt;br&gt;dataset" style="editableCssRules=.*;html=1;fontColor=#999999;shape=image;verticalLabelPosition=middle;labelBackgroundColor=#ffffff;verticalAlign=middle;labelPosition=right;align=left;spacingLeft=20;part=1;points=[];imageAspect=0;image=data:image/svg+xml,PHN2ZyB4bWxucz0iaHR0cDovL3d3dy53My5vcmcvMjAwMC9zdmciIHhtbG5zOnY9Imh0dHBzOi8vdmVjdGEuaW8vbmFubyIgd2lkdGg9IjIwLjAwMTA0NTIyNzA1MDc4IiBoZWlnaHQ9IjIwLjAwMTA0NTIyNzA1MDc4IiBmaWxsLXJ1bGU9ImV2ZW5vZGQiIHZpZXdCb3g9IjAgMCAyMC4wMDEwNDUyMjcwNTA3OCAyMC4wMDEwNDUyMjcwNTA3OCI+JiN4YTsJPHN0eWxlIHR5cGU9InRleHQvY3NzIj4mI3hhOwkuc3Qwe2ZpbGw6I2FlY2JmYTt9JiN4YTsJLnN0MXtmaWxsOiM2NjlkZjY7fSYjeGE7CS5zdDJ7ZmlsbDojNDI4NWY0O30mI3hhOwk8L3N0eWxlPiYjeGE7CTxwYXRoIGNsYXNzPSJzdDAiIGQ9Ik00LjczIDguODN2Mi42M2E0LjkxIDQuOTEgMCAwIDAgMS43MSAxLjc0VjguODN6Ii8+JiN4YTsJPHBhdGggY2xhc3M9InN0MSIgZD0iTTcuODkgNi40MXY3LjUzQTcuNjIgNy42MiAwIDAgMCA5IDE0YTggOCAwIDAgMCAxIDBWNi40MXoiLz4mI3hhOwk8cGF0aCBjbGFzcz0ic3QwIiBkPSJNMTEuNjQgOS44NnYzLjI5YTUgNSAwIDAgMCAxLjctMS44MlY5Ljg2eiIvPiYjeGE7CTxwYXRoIGNsYXNzPSJzdDIiIGQ9Ik0xNS43NCAxNC4zMmwtMS40MiAxLjQyYS40Mi40MiAwIDAgMCAwIC42bDMuNTQgMy41NGEuNDIuNDIgMCAwIDAgLjU5IDBsMS40My0xLjQzYS40Mi40MiAwIDAgMCAwLS41OWwtMy41NC0zLjU0YS40Mi40MiAwIDAgMC0uNiAwIi8+JiN4YTsJPHBhdGggY2xhc3M9InN0MSIgZD0iTTkgMGE5IDkgMCAxIDAgMCAxOEE5IDkgMCAxIDAgOSAwbTAgMTUuNjlhNi42OCA2LjY4IDAgMCAxIC4wMDctMTMuMzYgNi42OCA2LjY4IDAgMCAxIDQuNzI3IDExLjQwM0E2LjY4IDYuNjggMCAwIDEgOSAxNS42OSIvPiYjeGE7PC9zdmc+;" parent="1hRJxX3yk22vpqEc0cFK-18" vertex="1">
                    <mxGeometry width="30" height="30" relative="1" as="geometry">
                        <mxPoint x="15" y="15" as="offset"/>
                    </mxGeometry>
                </mxCell>
                <mxCell id="1hRJxX3yk22vpqEc0cFK-20" value="" style="strokeColor=#dddddd;shadow=1;strokeWidth=1;rounded=1;absoluteArcSize=1;arcSize=2;fillColor=none;labelBackgroundColor=none;fontColor=none;noLabel=1;" parent="TfbpHEirQnWEi919bVSF-1" vertex="1">
                    <mxGeometry x="-30" y="630" width="120" height="60" as="geometry"/>
                </mxCell>
                <mxCell id="1hRJxX3yk22vpqEc0cFK-21" value="&lt;font style=&quot;&quot; color=&quot;#000000&quot;&gt;stg&lt;/font&gt;&lt;br&gt;BigQuery&lt;br&gt;dataset" style="editableCssRules=.*;html=1;fontColor=#999999;shape=image;verticalLabelPosition=middle;labelBackgroundColor=#ffffff;verticalAlign=middle;labelPosition=right;align=left;spacingLeft=20;part=1;points=[];imageAspect=0;image=data:image/svg+xml,PHN2ZyB4bWxucz0iaHR0cDovL3d3dy53My5vcmcvMjAwMC9zdmciIHhtbG5zOnY9Imh0dHBzOi8vdmVjdGEuaW8vbmFubyIgd2lkdGg9IjIwLjAwMTA0NTIyNzA1MDc4IiBoZWlnaHQ9IjIwLjAwMTA0NTIyNzA1MDc4IiBmaWxsLXJ1bGU9ImV2ZW5vZGQiIHZpZXdCb3g9IjAgMCAyMC4wMDEwNDUyMjcwNTA3OCAyMC4wMDEwNDUyMjcwNTA3OCI+JiN4YTsJPHN0eWxlIHR5cGU9InRleHQvY3NzIj4mI3hhOwkuc3Qwe2ZpbGw6I2FlY2JmYTt9JiN4YTsJLnN0MXtmaWxsOiM2NjlkZjY7fSYjeGE7CS5zdDJ7ZmlsbDojNDI4NWY0O30mI3hhOwk8L3N0eWxlPiYjeGE7CTxwYXRoIGNsYXNzPSJzdDAiIGQ9Ik00LjczIDguODN2Mi42M2E0LjkxIDQuOTEgMCAwIDAgMS43MSAxLjc0VjguODN6Ii8+JiN4YTsJPHBhdGggY2xhc3M9InN0MSIgZD0iTTcuODkgNi40MXY3LjUzQTcuNjIgNy42MiAwIDAgMCA5IDE0YTggOCAwIDAgMCAxIDBWNi40MXoiLz4mI3hhOwk8cGF0aCBjbGFzcz0ic3QwIiBkPSJNMTEuNjQgOS44NnYzLjI5YTUgNSAwIDAgMCAxLjctMS44MlY5Ljg2eiIvPiYjeGE7CTxwYXRoIGNsYXNzPSJzdDIiIGQ9Ik0xNS43NCAxNC4zMmwtMS40MiAxLjQyYS40Mi40MiAwIDAgMCAwIC42bDMuNTQgMy41NGEuNDIuNDIgMCAwIDAgLjU5IDBsMS40My0xLjQzYS40Mi40MiAwIDAgMCAwLS41OWwtMy41NC0zLjU0YS40Mi40MiAwIDAgMC0uNiAwIi8+JiN4YTsJPHBhdGggY2xhc3M9InN0MSIgZD0iTTkgMGE5IDkgMCAxIDAgMCAxOEE5IDkgMCAxIDAgOSAwbTAgMTUuNjlhNi42OCA2LjY4IDAgMCAxIC4wMDctMTMuMzYgNi42OCA2LjY4IDAgMCAxIDQuNzI3IDExLjQwM0E2LjY4IDYuNjggMCAwIDEgOSAxNS42OSIvPiYjeGE7PC9zdmc+;" parent="1hRJxX3yk22vpqEc0cFK-20" vertex="1">
                    <mxGeometry width="30" height="30" relative="1" as="geometry">
                        <mxPoint x="15" y="15" as="offset"/>
                    </mxGeometry>
                </mxCell>
                <mxCell id="yVsQXxWx4Skl1uM3VvdF-0" value="" style="strokeColor=#dddddd;shadow=1;strokeWidth=1;rounded=1;absoluteArcSize=1;arcSize=2;fillColor=none;labelBackgroundColor=none;fontColor=none;noLabel=1;" parent="TfbpHEirQnWEi919bVSF-1" vertex="1">
                    <mxGeometry x="-28" y="713" width="120" height="60" as="geometry"/>
                </mxCell>
                <mxCell id="yVsQXxWx4Skl1uM3VvdF-1" value="&lt;font color=&quot;#000000&quot;&gt;int&lt;/font&gt;&lt;br&gt;BigQuery&lt;br&gt;dataset" style="editableCssRules=.*;html=1;fontColor=#999999;shape=image;verticalLabelPosition=middle;labelBackgroundColor=#ffffff;verticalAlign=middle;labelPosition=right;align=left;spacingLeft=20;part=1;points=[];imageAspect=0;image=data:image/svg+xml,PHN2ZyB4bWxucz0iaHR0cDovL3d3dy53My5vcmcvMjAwMC9zdmciIHhtbG5zOnY9Imh0dHBzOi8vdmVjdGEuaW8vbmFubyIgd2lkdGg9IjIwLjAwMTA0NTIyNzA1MDc4IiBoZWlnaHQ9IjIwLjAwMTA0NTIyNzA1MDc4IiBmaWxsLXJ1bGU9ImV2ZW5vZGQiIHZpZXdCb3g9IjAgMCAyMC4wMDEwNDUyMjcwNTA3OCAyMC4wMDEwNDUyMjcwNTA3OCI+JiN4YTsJPHN0eWxlIHR5cGU9InRleHQvY3NzIj4mI3hhOwkuc3Qwe2ZpbGw6I2FlY2JmYTt9JiN4YTsJLnN0MXtmaWxsOiM2NjlkZjY7fSYjeGE7CS5zdDJ7ZmlsbDojNDI4NWY0O30mI3hhOwk8L3N0eWxlPiYjeGE7CTxwYXRoIGNsYXNzPSJzdDAiIGQ9Ik00LjczIDguODN2Mi42M2E0LjkxIDQuOTEgMCAwIDAgMS43MSAxLjc0VjguODN6Ii8+JiN4YTsJPHBhdGggY2xhc3M9InN0MSIgZD0iTTcuODkgNi40MXY3LjUzQTcuNjIgNy42MiAwIDAgMCA5IDE0YTggOCAwIDAgMCAxIDBWNi40MXoiLz4mI3hhOwk8cGF0aCBjbGFzcz0ic3QwIiBkPSJNMTEuNjQgOS44NnYzLjI5YTUgNSAwIDAgMCAxLjctMS44MlY5Ljg2eiIvPiYjeGE7CTxwYXRoIGNsYXNzPSJzdDIiIGQ9Ik0xNS43NCAxNC4zMmwtMS40MiAxLjQyYS40Mi40MiAwIDAgMCAwIC42bDMuNTQgMy41NGEuNDIuNDIgMCAwIDAgLjU5IDBsMS40My0xLjQzYS40Mi40MiAwIDAgMCAwLS41OWwtMy41NC0zLjU0YS40Mi40MiAwIDAgMC0uNiAwIi8+JiN4YTsJPHBhdGggY2xhc3M9InN0MSIgZD0iTTkgMGE5IDkgMCAxIDAgMCAxOEE5IDkgMCAxIDAgOSAwbTAgMTUuNjlhNi42OCA2LjY4IDAgMCAxIC4wMDctMTMuMzYgNi42OCA2LjY4IDAgMCAxIDQuNzI3IDExLjQwM0E2LjY4IDYuNjggMCAwIDEgOSAxNS42OSIvPiYjeGE7PC9zdmc+;" parent="yVsQXxWx4Skl1uM3VvdF-0" vertex="1">
                    <mxGeometry width="30" height="30" relative="1" as="geometry">
                        <mxPoint x="15" y="15" as="offset"/>
                    </mxGeometry>
                </mxCell>
                <mxCell id="yVsQXxWx4Skl1uM3VvdF-2" value="" style="strokeColor=#dddddd;shadow=1;strokeWidth=1;rounded=1;absoluteArcSize=1;arcSize=2;fillColor=none;" parent="TfbpHEirQnWEi919bVSF-1" vertex="1">
                    <mxGeometry x="142" y="550" width="120" height="60" as="geometry"/>
                </mxCell>
                <mxCell id="yVsQXxWx4Skl1uM3VvdF-3" value="&lt;font color=&quot;#000000&quot;&gt;ventes&lt;br&gt;&lt;/font&gt;BigQuery&lt;br&gt;dataset" style="editableCssRules=.*;html=1;fontColor=#999999;shape=image;verticalLabelPosition=middle;labelBackgroundColor=#ffffff;verticalAlign=middle;labelPosition=right;align=left;spacingLeft=20;part=1;points=[];imageAspect=0;image=data:image/svg+xml,PHN2ZyB4bWxucz0iaHR0cDovL3d3dy53My5vcmcvMjAwMC9zdmciIHhtbG5zOnY9Imh0dHBzOi8vdmVjdGEuaW8vbmFubyIgd2lkdGg9IjIwLjAwMTA0NTIyNzA1MDc4IiBoZWlnaHQ9IjIwLjAwMTA0NTIyNzA1MDc4IiBmaWxsLXJ1bGU9ImV2ZW5vZGQiIHZpZXdCb3g9IjAgMCAyMC4wMDEwNDUyMjcwNTA3OCAyMC4wMDEwNDUyMjcwNTA3OCI+JiN4YTsJPHN0eWxlIHR5cGU9InRleHQvY3NzIj4mI3hhOwkuc3Qwe2ZpbGw6I2FlY2JmYTt9JiN4YTsJLnN0MXtmaWxsOiM2NjlkZjY7fSYjeGE7CS5zdDJ7ZmlsbDojNDI4NWY0O30mI3hhOwk8L3N0eWxlPiYjeGE7CTxwYXRoIGNsYXNzPSJzdDAiIGQ9Ik00LjczIDguODN2Mi42M2E0LjkxIDQuOTEgMCAwIDAgMS43MSAxLjc0VjguODN6Ii8+JiN4YTsJPHBhdGggY2xhc3M9InN0MSIgZD0iTTcuODkgNi40MXY3LjUzQTcuNjIgNy42MiAwIDAgMCA5IDE0YTggOCAwIDAgMCAxIDBWNi40MXoiLz4mI3hhOwk8cGF0aCBjbGFzcz0ic3QwIiBkPSJNMTEuNjQgOS44NnYzLjI5YTUgNSAwIDAgMCAxLjctMS44MlY5Ljg2eiIvPiYjeGE7CTxwYXRoIGNsYXNzPSJzdDIiIGQ9Ik0xNS43NCAxNC4zMmwtMS40MiAxLjQyYS40Mi40MiAwIDAgMCAwIC42bDMuNTQgMy41NGEuNDIuNDIgMCAwIDAgLjU5IDBsMS40My0xLjQzYS40Mi40MiAwIDAgMCAwLS41OWwtMy41NC0zLjU0YS40Mi40MiAwIDAgMC0uNiAwIi8+JiN4YTsJPHBhdGggY2xhc3M9InN0MSIgZD0iTTkgMGE5IDkgMCAxIDAgMCAxOEE5IDkgMCAxIDAgOSAwbTAgMTUuNjlhNi42OCA2LjY4IDAgMCAxIC4wMDctMTMuMzYgNi42OCA2LjY4IDAgMCAxIDQuNzI3IDExLjQwM0E2LjY4IDYuNjggMCAwIDEgOSAxNS42OSIvPiYjeGE7PC9zdmc+;" parent="yVsQXxWx4Skl1uM3VvdF-2" vertex="1">
                    <mxGeometry width="30" height="30" relative="1" as="geometry">
                        <mxPoint x="15" y="15" as="offset"/>
                    </mxGeometry>
                </mxCell>
                <mxCell id="yVsQXxWx4Skl1uM3VvdF-4" value="" style="strokeColor=#dddddd;shadow=1;strokeWidth=1;rounded=1;absoluteArcSize=1;arcSize=2;fillColor=none;labelBackgroundColor=none;fontColor=none;noLabel=1;" parent="TfbpHEirQnWEi919bVSF-1" vertex="1">
                    <mxGeometry x="142" y="630" width="120" height="60" as="geometry"/>
                </mxCell>
                <mxCell id="yVsQXxWx4Skl1uM3VvdF-5" value="&lt;font style=&quot;&quot; color=&quot;#000000&quot;&gt;stocks&lt;/font&gt;&lt;br&gt;BigQuery&lt;br&gt;dataset" style="editableCssRules=.*;html=1;fontColor=#999999;shape=image;verticalLabelPosition=middle;labelBackgroundColor=#ffffff;verticalAlign=middle;labelPosition=right;align=left;spacingLeft=20;part=1;points=[];imageAspect=0;image=data:image/svg+xml,PHN2ZyB4bWxucz0iaHR0cDovL3d3dy53My5vcmcvMjAwMC9zdmciIHhtbG5zOnY9Imh0dHBzOi8vdmVjdGEuaW8vbmFubyIgd2lkdGg9IjIwLjAwMTA0NTIyNzA1MDc4IiBoZWlnaHQ9IjIwLjAwMTA0NTIyNzA1MDc4IiBmaWxsLXJ1bGU9ImV2ZW5vZGQiIHZpZXdCb3g9IjAgMCAyMC4wMDEwNDUyMjcwNTA3OCAyMC4wMDEwNDUyMjcwNTA3OCI+JiN4YTsJPHN0eWxlIHR5cGU9InRleHQvY3NzIj4mI3hhOwkuc3Qwe2ZpbGw6I2FlY2JmYTt9JiN4YTsJLnN0MXtmaWxsOiM2NjlkZjY7fSYjeGE7CS5zdDJ7ZmlsbDojNDI4NWY0O30mI3hhOwk8L3N0eWxlPiYjeGE7CTxwYXRoIGNsYXNzPSJzdDAiIGQ9Ik00LjczIDguODN2Mi42M2E0LjkxIDQuOTEgMCAwIDAgMS43MSAxLjc0VjguODN6Ii8+JiN4YTsJPHBhdGggY2xhc3M9InN0MSIgZD0iTTcuODkgNi40MXY3LjUzQTcuNjIgNy42MiAwIDAgMCA5IDE0YTggOCAwIDAgMCAxIDBWNi40MXoiLz4mI3hhOwk8cGF0aCBjbGFzcz0ic3QwIiBkPSJNMTEuNjQgOS44NnYzLjI5YTUgNSAwIDAgMCAxLjctMS44MlY5Ljg2eiIvPiYjeGE7CTxwYXRoIGNsYXNzPSJzdDIiIGQ9Ik0xNS43NCAxNC4zMmwtMS40MiAxLjQyYS40Mi40MiAwIDAgMCAwIC42bDMuNTQgMy41NGEuNDIuNDIgMCAwIDAgLjU5IDBsMS40My0xLjQzYS40Mi40MiAwIDAgMCAwLS41OWwtMy41NC0zLjU0YS40Mi40MiAwIDAgMC0uNiAwIi8+JiN4YTsJPHBhdGggY2xhc3M9InN0MSIgZD0iTTkgMGE5IDkgMCAxIDAgMCAxOEE5IDkgMCAxIDAgOSAwbTAgMTUuNjlhNi42OCA2LjY4IDAgMCAxIC4wMDctMTMuMzYgNi42OCA2LjY4IDAgMCAxIDQuNzI3IDExLjQwM0E2LjY4IDYuNjggMCAwIDEgOSAxNS42OSIvPiYjeGE7PC9zdmc+;" parent="yVsQXxWx4Skl1uM3VvdF-4" vertex="1">
                    <mxGeometry width="30" height="30" relative="1" as="geometry">
                        <mxPoint x="15" y="15" as="offset"/>
                    </mxGeometry>
                </mxCell>
                <mxCell id="yVsQXxWx4Skl1uM3VvdF-8" value="" style="strokeColor=#dddddd;shadow=1;strokeWidth=1;rounded=1;absoluteArcSize=1;arcSize=2;fillColor=none;" parent="TfbpHEirQnWEi919bVSF-1" vertex="1">
                    <mxGeometry x="316.5" y="550" width="120" height="60" as="geometry"/>
                </mxCell>
                <mxCell id="yVsQXxWx4Skl1uM3VvdF-9" value="&lt;font color=&quot;#000000&quot;&gt;ventes&lt;br&gt;&lt;/font&gt;BigQuery&lt;br&gt;dataset" style="editableCssRules=.*;html=1;fontColor=#999999;shape=image;verticalLabelPosition=middle;labelBackgroundColor=#ffffff;verticalAlign=middle;labelPosition=right;align=left;spacingLeft=20;part=1;points=[];imageAspect=0;image=data:image/svg+xml,PHN2ZyB4bWxucz0iaHR0cDovL3d3dy53My5vcmcvMjAwMC9zdmciIHhtbG5zOnY9Imh0dHBzOi8vdmVjdGEuaW8vbmFubyIgd2lkdGg9IjIwLjAwMTA0NTIyNzA1MDc4IiBoZWlnaHQ9IjIwLjAwMTA0NTIyNzA1MDc4IiBmaWxsLXJ1bGU9ImV2ZW5vZGQiIHZpZXdCb3g9IjAgMCAyMC4wMDEwNDUyMjcwNTA3OCAyMC4wMDEwNDUyMjcwNTA3OCI+JiN4YTsJPHN0eWxlIHR5cGU9InRleHQvY3NzIj4mI3hhOwkuc3Qwe2ZpbGw6I2FlY2JmYTt9JiN4YTsJLnN0MXtmaWxsOiM2NjlkZjY7fSYjeGE7CS5zdDJ7ZmlsbDojNDI4NWY0O30mI3hhOwk8L3N0eWxlPiYjeGE7CTxwYXRoIGNsYXNzPSJzdDAiIGQ9Ik00LjczIDguODN2Mi42M2E0LjkxIDQuOTEgMCAwIDAgMS43MSAxLjc0VjguODN6Ii8+JiN4YTsJPHBhdGggY2xhc3M9InN0MSIgZD0iTTcuODkgNi40MXY3LjUzQTcuNjIgNy42MiAwIDAgMCA5IDE0YTggOCAwIDAgMCAxIDBWNi40MXoiLz4mI3hhOwk8cGF0aCBjbGFzcz0ic3QwIiBkPSJNMTEuNjQgOS44NnYzLjI5YTUgNSAwIDAgMCAxLjctMS44MlY5Ljg2eiIvPiYjeGE7CTxwYXRoIGNsYXNzPSJzdDIiIGQ9Ik0xNS43NCAxNC4zMmwtMS40MiAxLjQyYS40Mi40MiAwIDAgMCAwIC42bDMuNTQgMy41NGEuNDIuNDIgMCAwIDAgLjU5IDBsMS40My0xLjQzYS40Mi40MiAwIDAgMCAwLS41OWwtMy41NC0zLjU0YS40Mi40MiAwIDAgMC0uNiAwIi8+JiN4YTsJPHBhdGggY2xhc3M9InN0MSIgZD0iTTkgMGE5IDkgMCAxIDAgMCAxOEE5IDkgMCAxIDAgOSAwbTAgMTUuNjlhNi42OCA2LjY4IDAgMCAxIC4wMDctMTMuMzYgNi42OCA2LjY4IDAgMCAxIDQuNzI3IDExLjQwM0E2LjY4IDYuNjggMCAwIDEgOSAxNS42OSIvPiYjeGE7PC9zdmc+;" parent="yVsQXxWx4Skl1uM3VvdF-8" vertex="1">
                    <mxGeometry width="30" height="30" relative="1" as="geometry">
                        <mxPoint x="15" y="15" as="offset"/>
                    </mxGeometry>
                </mxCell>
                <mxCell id="yVsQXxWx4Skl1uM3VvdF-10" value="" style="strokeColor=#dddddd;shadow=1;strokeWidth=1;rounded=1;absoluteArcSize=1;arcSize=2;fillColor=none;labelBackgroundColor=none;fontColor=none;noLabel=1;" parent="TfbpHEirQnWEi919bVSF-1" vertex="1">
                    <mxGeometry x="316.5" y="630" width="120" height="60" as="geometry"/>
                </mxCell>
                <mxCell id="yVsQXxWx4Skl1uM3VvdF-11" value="&lt;font style=&quot;&quot; color=&quot;#000000&quot;&gt;stocks&lt;/font&gt;&lt;br&gt;BigQuery&lt;br&gt;dataset" style="editableCssRules=.*;html=1;fontColor=#999999;shape=image;verticalLabelPosition=middle;labelBackgroundColor=#ffffff;verticalAlign=middle;labelPosition=right;align=left;spacingLeft=20;part=1;points=[];imageAspect=0;image=data:image/svg+xml,PHN2ZyB4bWxucz0iaHR0cDovL3d3dy53My5vcmcvMjAwMC9zdmciIHhtbG5zOnY9Imh0dHBzOi8vdmVjdGEuaW8vbmFubyIgd2lkdGg9IjIwLjAwMTA0NTIyNzA1MDc4IiBoZWlnaHQ9IjIwLjAwMTA0NTIyNzA1MDc4IiBmaWxsLXJ1bGU9ImV2ZW5vZGQiIHZpZXdCb3g9IjAgMCAyMC4wMDEwNDUyMjcwNTA3OCAyMC4wMDEwNDUyMjcwNTA3OCI+JiN4YTsJPHN0eWxlIHR5cGU9InRleHQvY3NzIj4mI3hhOwkuc3Qwe2ZpbGw6I2FlY2JmYTt9JiN4YTsJLnN0MXtmaWxsOiM2NjlkZjY7fSYjeGE7CS5zdDJ7ZmlsbDojNDI4NWY0O30mI3hhOwk8L3N0eWxlPiYjeGE7CTxwYXRoIGNsYXNzPSJzdDAiIGQ9Ik00LjczIDguODN2Mi42M2E0LjkxIDQuOTEgMCAwIDAgMS43MSAxLjc0VjguODN6Ii8+JiN4YTsJPHBhdGggY2xhc3M9InN0MSIgZD0iTTcuODkgNi40MXY3LjUzQTcuNjIgNy42MiAwIDAgMCA5IDE0YTggOCAwIDAgMCAxIDBWNi40MXoiLz4mI3hhOwk8cGF0aCBjbGFzcz0ic3QwIiBkPSJNMTEuNjQgOS44NnYzLjI5YTUgNSAwIDAgMCAxLjctMS44MlY5Ljg2eiIvPiYjeGE7CTxwYXRoIGNsYXNzPSJzdDIiIGQ9Ik0xNS43NCAxNC4zMmwtMS40MiAxLjQyYS40Mi40MiAwIDAgMCAwIC42bDMuNTQgMy41NGEuNDIuNDIgMCAwIDAgLjU5IDBsMS40My0xLjQzYS40Mi40MiAwIDAgMCAwLS41OWwtMy41NC0zLjU0YS40Mi40MiAwIDAgMC0uNiAwIi8+JiN4YTsJPHBhdGggY2xhc3M9InN0MSIgZD0iTTkgMGE5IDkgMCAxIDAgMCAxOEE5IDkgMCAxIDAgOSAwbTAgMTUuNjlhNi42OCA2LjY4IDAgMCAxIC4wMDctMTMuMzYgNi42OCA2LjY4IDAgMCAxIDQuNzI3IDExLjQwM0E2LjY4IDYuNjggMCAwIDEgOSAxNS42OSIvPiYjeGE7PC9zdmc+;" parent="yVsQXxWx4Skl1uM3VvdF-10" vertex="1">
                    <mxGeometry width="30" height="30" relative="1" as="geometry">
                        <mxPoint x="15" y="15" as="offset"/>
                    </mxGeometry>
                </mxCell>
                <mxCell id="yVsQXxWx4Skl1uM3VvdF-14" value="Service&lt;br&gt;Accounts" style="sketch=0;html=1;verticalAlign=top;labelPosition=center;verticalLabelPosition=bottom;align=center;spacingTop=-6;fontSize=11;fontStyle=1;fontColor=#999999;shape=image;aspect=fixed;imageAspect=0;image=data:image/svg+xml,PHN2ZyB4bWxucz0iaHR0cDovL3d3dy53My5vcmcvMjAwMC9zdmciIHhtbG5zOnY9Imh0dHBzOi8vdmVjdGEuaW8vbmFubyIgd2lkdGg9IjE2LjQyMDAwMDA3NjI5Mzk0NSIgaGVpZ2h0PSIyMC4wNDk5OTkyMzcwNjA1NDciIGZpbGwtcnVsZT0iZXZlbm9kZCIgdmlld0JveD0iMCAwIDE2LjQyMDAwMDA3NjI5Mzk0NSAyMC4wNDk5OTkyMzcwNjA1NDciPiYjeGE7CTxzdHlsZSB0eXBlPSJ0ZXh0L2NzcyI+JiN4YTsJLnN0MHtmaWxsOiM0Mjg1ZjQ7fSYjeGE7CS5zdDF7ZmlsbDojNjY5ZGY2O30mI3hhOwk8L3N0eWxlPiYjeGE7CTxwYXRoIGNsYXNzPSJzdDEiIGQ9Ik04LjIxIDBMMCAzLjQydjUuNjNjMCA1LjA2IDMuNSA5LjggOC4yMSAxMSA0LjcxLTEuMTUgOC4yMS01Ljg5IDguMjEtMTAuOTVWMy40MnptMCAzLjc5YTIuNjMgMi42MyAwIDAgMSAxLjAwNSA1LjA2QTIuNjMgMi42MyAwIDAgMSA2LjM1IDQuNTZhMi42MyAyLjYzIDAgMCAxIDEuODYtLjc3em00LjExIDExLjE1YTguNjQgOC42NCAwIDAgMS00LjExIDIuOTMgOC42NCA4LjY0IDAgMCAxLTQuMTEtMi45M3YtMi4yNWMwLTEuNjcgMi43NC0yLjUyIDQuMTEtMi41MnM0LjExLjg1IDQuMTEgMi41MnoiLz4mI3hhOwk8cGF0aCBjbGFzcz0ic3QwIiBkPSJNOC4yMSAwdjMuNzlhMi42MyAyLjYzIDAgMSAxIDAgNS4yNnYxLjEyYzEuMzcgMCA0LjExLjg1IDQuMTEgMi41MnYyLjI1YTguNjQgOC42NCAwIDAgMS00LjExIDIuOTNWMjBjNC43MS0xLjE1IDguMjEtNS44OSA4LjIxLTEwLjk1VjMuNDJ6Ii8+JiN4YTs8L3N2Zz4=;" parent="TfbpHEirQnWEi919bVSF-1" vertex="1">
                    <mxGeometry x="414" y="363" width="34" height="42" as="geometry"/>
                </mxCell>
                <mxCell id="yVsQXxWx4Skl1uM3VvdF-15" value="webserver" style="sketch=0;html=1;verticalAlign=top;labelPosition=center;verticalLabelPosition=bottom;align=center;spacingTop=-6;fontSize=11;fontStyle=1;fontColor=#999999;shape=image;aspect=fixed;imageAspect=0;image=data:image/svg+xml,PHN2ZyB4bWxucz0iaHR0cDovL3d3dy53My5vcmcvMjAwMC9zdmciIHhtbG5zOnY9Imh0dHBzOi8vdmVjdGEuaW8vbmFubyIgd2lkdGg9IjIwIiBoZWlnaHQ9IjE2IiB2aWV3Qm94PSIwIDAgMjAgMTYiPiYjeGE7CTxzdHlsZSB0eXBlPSJ0ZXh0L2NzcyI+JiN4YTsJLnN0MHtmaWxsOiM0Mjg1ZjQ7fSYjeGE7CS5zdDF7ZmlsbDojNjY5ZGY2O30mI3hhOwkuc3Qye2ZpbGw6I2FlY2JmYTt9JiN4YTsJLnN0M3tmaWxsOiNmZmY7fSYjeGE7CTwvc3R5bGU+JiN4YTsJPHBhdGggY2xhc3M9InN0MiIgZD0iTTAgMGgyMHY3SDB6Ii8+JiN4YTsJPHBhdGggY2xhc3M9InN0MSIgZD0iTTE4IDBoMnY3aC0yeiIvPiYjeGE7CTxwYXRoIGNsYXNzPSJzdDAiIGQ9Ik0xOCA3bDItN2gtMnoiLz4mI3hhOwk8cGF0aCBjbGFzcz0ic3QxIiBkPSJNMCAwaDJ2N0gweiIvPiYjeGE7CTxnIGNsYXNzPSJzdDMiPiYjeGE7CQk8cGF0aCBkPSJNNCAzaDZ2MUg0eiIvPiYjeGE7CQk8cmVjdCB4PSIxMyIgeT0iMiIgd2lkdGg9IjMiIGhlaWdodD0iMyIgcng9IjEuNSIvPiYjeGE7CTwvZz4mI3hhOwk8cGF0aCBjbGFzcz0ic3QyIiBkPSJNMCA5aDIwdjdIMHoiLz4mI3hhOwk8cGF0aCBjbGFzcz0ic3QxIiBkPSJNMTggOWgydjdoLTJ6Ii8+JiN4YTsJPHBhdGggY2xhc3M9InN0MCIgZD0iTTE4IDE2bDItN2gtMnoiLz4mI3hhOwk8cGF0aCBjbGFzcz0ic3QxIiBkPSJNMCA5aDJ2N0gweiIvPiYjeGE7CTxnIGNsYXNzPSJzdDMiPiYjeGE7CQk8cGF0aCBkPSJNNCAxMmg2djFINHoiLz4mI3hhOwkJPHJlY3QgeD0iMTMiIHk9IjExIiB3aWR0aD0iMyIgaGVpZ2h0PSIzIiByeD0iMS41Ii8+JiN4YTsJPC9nPiYjeGE7PC9zdmc+;" parent="TfbpHEirQnWEi919bVSF-1" vertex="1">
                    <mxGeometry x="185" y="730" width="32.12" height="26" as="geometry"/>
                </mxCell>
                <mxCell id="yVsQXxWx4Skl1uM3VvdF-19" value="GCS" style="sketch=0;html=1;verticalAlign=top;labelPosition=center;verticalLabelPosition=bottom;align=center;spacingTop=-6;fontSize=11;fontStyle=1;fontColor=#999999;shape=image;aspect=fixed;imageAspect=0;image=data:image/svg+xml,PHN2ZyB4bWxucz0iaHR0cDovL3d3dy53My5vcmcvMjAwMC9zdmciIHhtbG5zOnY9Imh0dHBzOi8vdmVjdGEuaW8vbmFubyIgd2lkdGg9IjIwIiBoZWlnaHQ9IjE2IiB2aWV3Qm94PSIwIDAgMjAgMTYiPiYjeGE7CTxzdHlsZSB0eXBlPSJ0ZXh0L2NzcyI+JiN4YTsJLnN0MHtmaWxsOiM0Mjg1ZjQ7fSYjeGE7CS5zdDF7ZmlsbDojNjY5ZGY2O30mI3hhOwkuc3Qye2ZpbGw6I2FlY2JmYTt9JiN4YTsJLnN0M3tmaWxsOiNmZmY7fSYjeGE7CTwvc3R5bGU+JiN4YTsJPHBhdGggY2xhc3M9InN0MiIgZD0iTTAgMGgyMHY3SDB6Ii8+JiN4YTsJPHBhdGggY2xhc3M9InN0MSIgZD0iTTE4IDBoMnY3aC0yeiIvPiYjeGE7CTxwYXRoIGNsYXNzPSJzdDAiIGQ9Ik0xOCA3bDItN2gtMnoiLz4mI3hhOwk8cGF0aCBjbGFzcz0ic3QxIiBkPSJNMCAwaDJ2N0gweiIvPiYjeGE7CTxnIGNsYXNzPSJzdDMiPiYjeGE7CQk8cGF0aCBkPSJNNCAzaDZ2MUg0eiIvPiYjeGE7CQk8cmVjdCB4PSIxMyIgeT0iMiIgd2lkdGg9IjMiIGhlaWdodD0iMyIgcng9IjEuNSIvPiYjeGE7CTwvZz4mI3hhOwk8cGF0aCBjbGFzcz0ic3QyIiBkPSJNMCA5aDIwdjdIMHoiLz4mI3hhOwk8cGF0aCBjbGFzcz0ic3QxIiBkPSJNMTggOWgydjdoLTJ6Ii8+JiN4YTsJPHBhdGggY2xhc3M9InN0MCIgZD0iTTE4IDE2bDItN2gtMnoiLz4mI3hhOwk8cGF0aCBjbGFzcz0ic3QxIiBkPSJNMCA5aDJ2N0gweiIvPiYjeGE7CTxnIGNsYXNzPSJzdDMiPiYjeGE7CQk8cGF0aCBkPSJNNCAxMmg2djFINHoiLz4mI3hhOwkJPHJlY3QgeD0iMTMiIHk9IjExIiB3aWR0aD0iMyIgaGVpZ2h0PSIzIiByeD0iMS41Ii8+JiN4YTsJPC9nPiYjeGE7PC9zdmc+;" parent="TfbpHEirQnWEi919bVSF-1" vertex="1">
                    <mxGeometry x="191.89" y="390.75" width="19.77" height="16" as="geometry"/>
                </mxCell>
                <mxCell id="yVsQXxWx4Skl1uM3VvdF-40" value="Secret&#10;Manager" style="shape=image;verticalLabelPosition=bottom;labelBackgroundColor=none;verticalAlign=top;aspect=fixed;imageAspect=0;image=data:image/png,iVBORw0KGgoAAAANSUhEUgAAAgAAAAIACAYAAAD0eNT6AAAAAXNSR0IArs4c6QAAAERlWElmTU0AKgAAAAgAAYdpAAQAAAABAAAAGgAAAAAAA6ABAAMAAAABAAEAAKACAAQAAAABAAACAKADAAQAAAABAAACAAAAAAAL+LWFAAAwAElEQVR4Ae3dDZAcZ3kg4O7RrmTtrmRjDBUICdyBIXepiwkOnIEYVpIxMQ4EcAz+IdyRXMIlIfxdnY31AxssyRgoSEiKhBy5hAv+kRyg7nxAHdgrgYOTQKCASy4EQkESzs75B7C1s7K0u9P3fSsJz1rane3d7p3u6WeqVOqd/vrr93vemel3unu6k8SDAAECBAgQIECAAAECBAgQIECAAAECBAgQIECAAAECBAgQIECAAAECBAgQIECAAAECBAgQIECAAAECBAgQIECAAAECBAgQIECAAAECBAgQIECAAAECBAgQIECAAAECBAgQIECAAAECBAgQIECAAAECBAgQIECAAAECBAgQIECAAAECBAgQIECAAAECBAgQIECAAAECBAgQIECAAAECBAgQIECAAAECBAgQIECAAAECBAgQIECAAAECBAgQIECAAAECBAgQIECAAAECBAgQIECAAAECBAgQIECAAAECBAgQIECAAAECBAgQIECAAAECBAgQIECAAAECBAgQIECAAAECBAgQIECAAAECBAgQIECAAAECBAgQIECAAAECBAgQIECAAAECBAgQIECAAAECBAgQIECAAAECBAgQIECAAAECBAgQIECAAAECBAgQIECAAAECBAgQIECAAAECBAgQIECAAAECBAgQIECAAAECBAgQIECAAAECBAgQIECAAAECBAgQIECAAAECBAgQIECAAAECBAgQIECAAAECBAgQIECAAAECBAgQIECAAAECBAgQIECAAAECBAgQIECAAAECBAgQIECAAAECBAgQIECAAAECBAgQIECAAAECBAgQIECAAAECBAgQIECAAAECBAgQIECAAAECBAgQIECAAAECBAgQIECAAAECBAgQIECAAAECBAgQIECAAAECBAgQIECAAAECBAgQIECAAAECBAgQIECAAAECBAgQIECAAAECBAgQIECAAAECBAgQIECAAAECBAgQIECAAAECBAgQIECAAAECBAgQIECAAAECBAgQIECAAAECBAgQIECAAAECBAgQIECAAAECBAgQIECAAAECBAgQIECAAAECBAgQIECAAAECBAgQIECAAAECBAgQIECAAAECBAgQIECAAAECBAgQIECAAAECBAgQIECAAAECBAgQIECAAAECBAgQIECAAAECBAgQIECAAAECBAgQIECAAAECBAgQIECAAAECBAgQIECAAAECBAgQIECAAAECBAgQIECAAAECBAgQIECAAAECBAgQIECAAAECBAgQIECAAAECBAgQIECAAAECBAgQIECAAAECBAgQIECAAAECBAgQIECAAAECBAgQIECAAAECBAgQIECAAAECBAgQIECAAAECBAgQIECAAAECBAgQIECAAAECBAgQIECAAAECBAgQIECAAAECBAgQIECAAAECBAgQIECAAAECBAgQIECAAAECBAgQIECAAAECBAgQIECAAAECBAgQIECAAAECBAgQIECAAAECBAgQIECAAAECBAgQIECAAAECBAgQIECAAAECBAgQIECAAAECBAgQIECAAAECBAgQIECAAAECBAgQIECAAAECBAgQIECAAAECBAgQIECAAAECBAgQIECAAAECBAgQIECAAAECBAgQIECAAAECBAgQIECAAAECBAgQIECAAAECBAgQIECAAAECBAgQIECAAAECBAgQIECAAAECBAgQIECAAAECBAgQIECAAAECBAgQINBngbTP68+9+q17prLcC1lgpQLtJEm/kqXJngPbRz+x0k4sR4BAdQTGr59+Qmuu8840S8bDh+njqhNZ/SOZ3DFWq21qq/7kRlCiwGiSZM9Js+zjW/e0/0OJ69E1AQJrIDC/8Z/tfCXJkstt/NcAvOKrUABUPEHVCS97z0UT92+uTjwiIUAgr0D85h+WOTPvctoPpoACYDDzWsaoNs2sW/+MMjrWJwECaySQJc9fozVZTQ0EFAA1SFJVQuykqeOFVUmGOAisTODxK1vMUoMooAAYxKwaEwECBAgQ6CGgAOgBZDYBAgQIEBhEAQXAIGbVmAgQIECAQA8BBUAPILMJECBAgMAgCigABjGrxkSAAAECBHoIKAB6AJlNgAABAgQGUUABMIhZNSYCBAgQINBDQAHQA8hsAgQIECAwiAIKgEHMqjERIECAAIEeAgqAHkBmEyBAgACBQRRQAAxiVo2JAAECBAj0EFAA9AAymwABAgQIDKKAAmAQs2pMBAgQIECgh4ACoAeQ2QQIECBAYBAFFACDmFVjIkCAAAECPQQUAD2AzCZAgAABAoMooAAYxKwaEwECBAgQ6CGgAOgBZDYBAgQIEBhEAQXAIGbVmAgQIECAQA8BBUAPILMJECBAgMAgCigABjGrxkSAAAECBHoIKAB6AJlNgAABAgQGUUABMIhZNSYCBAgQINBDQAHQA8jshwVaWXb3w3+ZIkCghgJ31TBmIZckoAAoCXYAuz00PHf0SwM4LkMi0ByBNPlMcwZrpL0EFAC9hMw/LpC++ZMTj34QBwEC9RXorGtdFaL/bn1HIPIiBRQARWoOXl/tJEnvzNL04skdox8cvOEZEYFmCRy8euQ7naHWOUma3JQmiUN6zUr/SaMdOukZTywpMLljLLxvPAgQIFBPgVgEhMivqGf0S0e9dc9UtnQLc7sF7AHo1jBNgAABAgQaIqAAaEiiDZMAAQIECHQLKAC6NUwTIECAAIGGCCgAGpJowyRAgAABAt0CCoBuDdMECBAgQKAhAgqAhiTaMAkQIECAQLeAAqBbwzQBAgQIEGiIgAKgIYk2TAIECBAg0C2gAOjWME2AAAECBBoioABoSKINkwABAgQIdAsoALo1TBMgQIAAgYYIKAAakmjDJECAAAEC3QIKgG4N0wQIECBAoCECCoCGJNowCRAgQIBAt4ACoFvDNAECBAgQaIiAAqAhiTZMAgQIECDQLaAA6NYwTYAAAQIEGiKgAGhIog2TAAECBAh0CygAujVMEyBAgACBhggoABqSaMMkQIAAAQLdAgqAbg3TBAgQIECgIQIKgIYk2jAJECBAgEC3gAKgW8M0AQIECBBoiIACoCGJNkwCBAgQINAtoADo1jBNgAABAgQaIqAAaEiiDZMAAQIECHQLKAC6NUwTIECAAIGGCCgAGpJowyRAgAABAt0CCoBuDdMECBAgQKAhAgqAhiTaMAkQIECAQLeAAqBbwzQBAgQIEGiIgAKgIYk2TAIECBAg0C2gAOjWME2AAAECBBoioABoSKINkwABAgQIdAsoALo1TBMgQIAAgYYIKAAakmjDJECAAAEC3QIKgG4N0wQIECBAoCECCoCGJNowCRAgQIBAt4ACoFvDNAECBAgQaIiAAqAhiTZMAgQIECDQLaAA6NYwTYAAAQIEGiKgAGhIog2TAAECBAh0CygAujVMEyBAgACBhggoABqSaMMkQIAAAQLdAgqAbg3TBAgQIECgIQIKgIYk2jAJECBAgEC3gAKgW8M0AQIECBBoiIACoCGJNkwCBAgQINAtoADo1jBNgAABAgQaIjDUkHEa5goExvc++GOtrPW3K1j0pEU6aedfHdy++WsnzfBEYQLyVRjlmnV0wbWHxjut9EARK9wwc+T0T048+sEi+tJHMwTsAWhGno2SAAECBAgsEFAALODwBwECBAgQaIaAAqAZeTZKAgQIECCwQEABsIDDHwQIECBAoBkCCoBm5NkoCRAgQIDAAgEFwAIOfxAgQIAAgWYIKACakWejJECAAAECCwQUAAs4/EGAAAECBJohoABoRp6NkgABAgQILBBQACzg8AcBAgQIEGiGgAKgGXk2SgIECBAgsEBAAbCAwx8ECBAgQKAZAgqAZuTZKAkQIECAwAIBBcACDn8QIECAAIFmCCgAmpFnoyRAgAABAgsEFAALOPxBgAABAgSaIaAAaEaejZIAAQIECCwQUAAs4PAHAQIECBBohoACoBl5NkoCBAgQILBAQAGwgMMfBAgQIECgGQJDzRhmvUe5dff0s5JW57owig+3Wkc/ettbznyg3iMqN/rxie+dkQ6vf3maZlcmndY1kztHPl/uGhf2Ll8LPXr91e98xfi2Xdd+ZqeT/Mxwp/XhT+3a+K1eMZt/zCzLsiuOprNv/7Nrzvgek/oJKADqkLO0c0WSJVtDqFs7c+vfv3VP+xNZ1rkxmx37+MGJ9KE6DKHsGJ/9nmzjyPTUS5I0uTxL0p9JkmxDMEuSaJcka1oAzK9TvpZMeaXyFSLNOslr0iT71dnW3NvD++vONOnceDRN9t+xfdO9Sw6kYTNfcO0DZ8+1WlcmSevKrJM9JQ5/QzL81+G/P2wYxUAMVwFQ8TROTGStzybtS7vCPC18XIVvt+nL0+H2A1t3T300S5Mbnj8zemBiIu10tRv4yXM/kA2fft/0BUmWXZ4cbr88S9PRUwz60mD45rWyka9TZOD4U1XMVwzt0v3Zuvv/vn3JfME4H2v2nFBEPmc4S967bc/Up8Kb6saHNo5+7M/fnB4+PpRG/Xf+nvbjhpLssjRJLp9LkmceG3ysro9PZdkrw5QC4ARIjf5XAFQ8WXcMTz0/fI19/CJhnh6+8YZvLslr7hhu371179S+UBjcePs1o19YpP1APL1196HnxW/6yX3tnw8DOitML/V4/DHD5MBSjYqaJ18nS1Y5XzHa736jHfeuPfbkyJNQAyQXh5fXxRsPt9uhGPhILAbOOnv0tltekYZt4eA+Lpq4f/OR9RtiURS+7WfjYaTrlhjtlvP3HnqMvSVLCFV0lgKgoonpCuuyrulFJ8MH1ePCm/WN4ZjcG7fumfpGKBpuWNeZvfHTu04P0/V/jO+ZenqahY1+3PAnyY/kHFE0XJMCIKxHvgJCjfKVdLLklenSRWR8uY2G99irQ7NX3//19j+H99i+JGvduNbnl8RAynpc9L5sw0NTUxe3stYVR5Ls4vB5EvY2LusxNJwksRj/vWW11qgyAgqAyqTi5EDiLtPsvvbLT57T85mzQ9U+MddaNxE+qL4Q3sg3zqTpvjt2jN7dc8kKNdh67fefnK4bvjIUNXGj/2M9vukvGnnYnfvyYPm6L742nVm0UQEz5Kte+YopjzlL72u/LFf60+SHQvs3hHM93nCi2E46Mx+e3HXGN3P1U4HG8ZDV8b1WrzpyqH1JmqSnZ+EDI/cjS+NhAAVAbrj+LqAA6K//kmufP74dd3Gv7vHMsOF85nCSvTt8WB0M0zdsOHrkI5+cePSDq+u2nKXj8cbheEzx2Df9Z4WNfxErOuu45SeL6GyxPuQrqVW+Yh433zd9YfjvzMVyuozn54vtpDU0sW3Pob8IL9cbhmaS/Z/6zU33LGPZvjXZcl373HDuzBWfzdphj9WihxjzxHf+C65vP/7TV4/elWchbfsroADor/+Saw9nJV9WyObv2FriMbxtobjfdmR4w/u37Wl/vJN2bjxtbOzjn3x9emTJQEqeGX8Gtm79+kvCN4/wa4dwvDFNCr8+RbQMwyi1AJCv4l4oa5GvGG16rNgsJPCwp+m88No9b3Z98t5QbH86HLK6YWR29GO3TqTThaxglZ107VG7Ihz3eNoqu3vk4q3ObBZPVv7tR87wd3UFFAAVzc34RHZalrRfWlJ4oe/skjRLLwm7/eZ/SRA2vB9+3tzYwbU6W/6RPwML3/Q3lDTW+W5DIfXSaFrWzyblq9jslZ2vGG3MWZK2f67YyOd7i5+rF4Vf51zUHm63QzHwsbSV3DB3ZPS28PqbLWF9i3Y5/s6pH0qPZq8IJwfHn8P+24L2qJ1yfeEzJR4GUACcUqeaTyoAqpmXJF0/9aIkSzevQXjzvyRI0vQ1n2217wofVvs6WXrjkZGRv0kPTz8vnEtQSAjhxKLzwklG33poanpb2gnfxhf/2V4h6ztFJ5vnTZPko6eYt+qn5GvVhI/soNR8xZW1hg5fFP4r+z0Wf5r6qnCdgVe11rfvCdcY2Bd+rnrDge0jfxljmGulG3qffxhb9n4cXT8czsVLkudef++m0+Y2vjwcjrgymQnXD0nTpc7g793xsluk523dffiJkzs3/sOyF9GwrwIKgL7yL77ysBc87LIuZuO7+FpOmhN/bvimVpq9KfzsaS5MF/nB8Udhb8MHw4fdurCbtC+PY6YlFQDyVXhOy8xXDDZrdV4ZdtOv3SOLPzXMfiMcdviNUAh8Mxzm+Puw+i1FBZBlra+F64J8PplNtoR+NxbVb45+wk7FuVeE9u/KsYymfRQo/FhrH8cyMKsen7hnLOySv7jPAypy439iKGX0eaLv3v8H03nb3i1ztZCvXFzLb1xSvmIAF74rGw0b/59dfjBFt8yeHDbSLwy9ri+w53hNjBeF/vqx8Z8fRqjt42EAj5oIKAAqmKh1QyPxuORIBUOre0gjx20LHYd8FcrZ3Vkp+YormDsyFTf+cfe8R7EC545f98BTiu1Sb2UJKADKkl1Fv+GbQTxj3aMEgTJsy+izhKHXssuybMMJer6plvSKaHWG2JZkW3S3CoCiRVfZ309f9/1Hhd148bfJHmUIBNt544L6lq+CIBfrpuB8xdXEy9yGHwDGEwA9yhBI538NUEbP+ixYQAFQMOhqu9uQDccr/xV5XHC1IQ3a8uuPGxcyLvkqhHGpTgrNV1xRuMZ9PMS23MvcLhWbeacSyJJ/s23voX99qlmeq5aAAqBa+Ug6xy5YU7GoBiucIo2L7GuwlIsbTdHG4eQ/u6iLS88pe+p0GJ8SpmJPKgAqlpDwE6H/EXZP3lmxsAYonPTOY8bFDEm+inFcvJdi8xVv/RvOK/iXi6/PnCIE0lYaLpHsUXWBPv0ie+Us4UI14f3bv8fkjrE1MbvgHYd/tNMJv6nNknh5zWf1b8QDsebPh/Mqbmm11u2/7S0b/7GMEclXoaql52v+Wvhz8Qp5899Un1ho9A3tLHwwfjncLnn/cGfdzZ/atfFb/WBoyvahKNs12ZgVFWzsp4kJHr/u8JNanbm42zJeZOMZ0cGjp8CXQov9nda6fQev2fjtnq0LbCBfK8LsW7627Z1+dpZ14vsr3tL2h1cUfXMX+ttwmeGbww8rb759++av95uhiduH1ZgrAHLqrdUegMXCijf0SFrDl4ULBV0avtWes1i7Rj6fJV8Jlz29Jdya9eaq3JpVvpZ4JVYtX1mWbrlu6nlp1gp3o8wuCXvfwpX7PE4WSL+ZZJ2bWp10/21vHfvfJ8/v3zMKgHz2CoB8Xkm/C4DucLdc++DTWuvWvTLchCMeKvjx7nmNmU6Tvwn3MN/fmZvbd2DX5r+r8rjlK2SnJvmK5wrc9432eDhJ6opwzDHelGs1twyu8styubH9Y9hY7JvL0v0Hd47+1XIXWut2CoB84gqAfF6VKgC6Q48/u4ln3obdcXFXZtG3+uxeVRWm/y7c1Wxfq5Xsu337pv9ThYDyxiBfecX61/7cD2TDm++ffkEr3Do4FAMvC5Fs6l80a7rmu8Labgnf9vdP7txcixOTFQD5Xh8KgHxelS0Auoexbc/UT4QNZDhE0Lo83Hzkyd3z6jt9bLdjKHBuuX3H2FfrO46TI5evk02q+ky8hfD8XQTTTjwf5yXh36Bdsvve8JnxkVYn2XfbzrHPhENqoeapz0MBkC9XCoB8XrUoALqHFO469ozj5wvEyws/qXteDaa/HQ5t3ByP60/uGI0niQ38Q77qk+IXT2Qj08NTLwlbyFAMzF9ZsK4XF/pe2BB8LMjffObZo5O3vCKNdwKt5UMBkC9tCoB8XrUrALqHt3X39LOSpBNPHozfXn60e16Fpv8xbPT3h7u13zK5c+TzFYprzUORrzUnX/EKn3v9vZvWz2582fxFhtLkgtBRxa/mmU6FLwYfy9J031kzI5++ZSI9uuLBV2hBBUC+ZCgA8nnVugDoHurW3Q8+J2m1Lg0b23idgX7/9On/hqIknL3fCRv9ehxr7LZci2n5WgvlYtYR7w8x3Bl+WfglweWhIBgPvQ4V0/Oqe5kON0G6Nezi358dHfvEwYn0oVX3WLEOFAD5EqIAyOc1MAXAiWHPH9Mcbn8v/N2v3Zf3PnDW6A9/8bXpzImY/L+4gHwtblPFORe+7dBjZ9e3fjlsdHf3Mb7DodD/pdHZ0f9+60Q63cc4Sl+1AiAfcfiVi0eTBeK3gPCt4C/6ZpAmN9j4L19fvpZvVYWWn/rNTfc8cNbIO8M5AlN9jOdjkzvHbhr0jX8ffWu7agVAbVNXTODx2GWapU8oprf8vYQTqB6Xf6nmLiFf9cv9sQI369tV8sJ77H/VT03EayGgAFgL5QqvY8Pcxg+E3ZNP6VeI8aSpbXvbr+3X+uu2XvmqW8aSZNveqX8Xou7bJbzDhbLeesE7vnt6/eREXLaAAqBs4Qr3Hza8vxSODYZrBfT3Ea5Z8Fvje6ae3t8oqr92+ap+jh4Z4ba9Dz41XGH4dx/5/Nr+nT2509nwX9Z2ndZWBwEFQB2yVEKMW95+6MfDhvd9JXS9ki5PCy/EfXH39koWbsIy8lW/LF/0vmxDkrX2hT1sY32PPlwYbOvu9n/sexwCqJSAAqBS6VibYOIFTNKhNHwwVeoqZk/dMLvxD9ZGoF5rka965etEtEcOTb8rHH+vzp6tNHvvlndMuYHYiQT5P1EANPBFMDXUfl/Y9V/Fmwdd5lvKyS9I+TrZpOrPbNnbDpcJzl5XsThPC9f42zc+cU//90hUDKap4SgAGpb5LXumrkjT5JcqO+zwLcX5AA9nR74etqjL1Pj1009Is+yPQrxVvM7K01rDI79XF0txliugACjXt1K9v+DaB84On0i/X6mgTg4mng+w/6KJ+zefPKtZz8hX/fIdbyPcmu3cGCKv8u2DX7V179Rr6qcr4qIFFABFi1a0v3hC0ly6Lh73r8OJdmc/tH5Do88HkK+KvpF6hHXf16feGpqc36NZ/2dnye/GW1L3PxAR9FNAAdBP/TVc95Gp6XeHHZI/uYarXNWq4vUBmnw+gHyt6uXTl4UvuPbQeLhd9Y6+rDz/SkeyJN3/7PdkG/MvaolBEVAADEomlxhHuKvcy8Kdv8o6Iekfwqrjv+IfDT0fQL6KfymV3eP4xINndVrph8N61pW9rsL6DycCnzbd/p3C+tNR7QQUALVLWb6At+4+/MQk7fxhvqWW2TpL/mRyx9iT4r/wq4I/WeZSeZo17nwA+crz8qhI23Cln9ZQK570V/hdNcM5O3eHcwknwjU79ob+C79lbzwhOJ5oWhFJYayxgAJgjcHXcnXnfiAbTtPZm8M6H1XCer9xZPjwr5/o9/j0N078XeD/Zx8ZbsZVzOSrwFfNGna1dU/7DeHw2s+WsMpO2klePblj9DcP7Ny0I1xTYGcJ64g/Vfj9eMXCMvrWZ7UFFADVzs+qojvjvvaecJzvvFV1cuqFj2at9PLPXf2YQydmx+n4XPi78G8poc9XbN176FdPrGtQ/5ev+mV2y3Xtc8MW9B0lRf6u23aN3Xai7wPbR98dpj994u8C/98Ur1g4f+XCAjvVVfUFFADVz9GKIgzfSi4K3xj+04oW7rFQ6PctB64Z/eIjm8Xn4rxHPl/I31n6nguua9fmJMa8Y5avvGL9bz9/Z8ZOdlOIZEMJ0Xz+gbNGdy3oN02zznDy6lBw3LPg+QL+CO/bpx89NP2eArrSRY0EFAA1StZyQ33B9e3Hh6uQfSi0Lz6/WfKJ8E3ktxaLZX5eaLPY/FU8f1qnM5jXB5CvVbwq+rhouHT1+8Pqzy4hhENJZ/aKY7cRXtj7wavG/jns1XtNeDZss4t9ZEn2a1t2H7qk2F71VmWB4jcQVR5tA2KbmMhas3PZDWGojylhuHfNtLJ/n4RvIov2HebNt0mSuxZts+IZ2VMG7XwA+Vrxi6GvCx6/xe+rSgkiTX59ctcZ31ys71BkfyLsBfjtxeav5vnwM8YPXnjt4X+xmj4sWx8BBUB9crWsSD87PPXWsHkeX1bjfI06SSf7hTu2b7q312LzbULb0K7Tq+0K5g/U+QDytYJXQJ8X2XLtg08r8Ra/H57cPtbzFzUbxkbfEk7e+3IJFGfMtuZuvnQiW19C37qsmIACoGIJWU042/Yc2hJ+MlTKmcJhj+N1k7s2TS43vmNts+uW2z5Xuyx9bzhm/oxcy1SwsXxVMCk9QoonyrVarfDLmjJu8Zt+88jQ4V/rEcL87E++Pj0yl3biSbft5bTP2eZZ9w+3yzqxMWcompcpoAAoU3cN+77wbYceG44NlnQhkvTOzszYRN7hHFsmvTPvcstoH0+62lfn+wXI1zKyXMEm8QqN8YS5EkKbSbL0iu5f1vRax8Htm78WCv439mq3wvlvDFfifPEKl7VYTQQUADVJ1JJhhv2RM8Pph0KbcPJf4Y/vhZ8IXXFwIp3N2/P8MmHZsNz38i7bu304H2D9aR/s3a6CLeSrgknpHdKW3e2fC1fU/MG1L3ovkavFrsmdI5/PtURoHK4R8MFwTs4teZdbRvs0SbM/vnD39I8so60mNRVQANQ0cd1hb93bvipc0etnup8rajpcgeyXJ3du/IeV9heXjX2sdPkll8uyS8NZy8vaZbpkP2s8U77WGLyA1cUNYTi/9b+GrsKh98Iftz9vZvRdK+21c/Tor4RlV/weXWK9Z86m2U3jE9nQEm3MqrGAAqDGyYuhb9s7/ezw37VlDCP8LOgD4QpkH1lt37GP2Ndq+znV8uGs5ffU6XwA+apXvuJrLt7idzbtxF/WlHGL33tnkvQXJibCNf9W+Dg48ajvZ2nnyrD43Aq7WGKx7LmtoXYpny9LrNSsNRJQAKwRdBmr+enrvv+oLOvEC5EMl9D/Xz+0cexNRfV7vK+/Lqq/rn5qcz6AfM1nrTb5OvEa++43pt4Wps8/8XeB/2ehgP3FO3aM3r3aPg9s3/y5sHOinA11mlwV7hfwwtXGaPnqCSgAqpeTZUe0vrMu7pJ84rIXWH7Dw9lcdtmfvzk9vPxFlm4Z+4p9hlaF9fnwGuP1AU77w4f/ruaUfJ3ISz3yFaONt/gNJ9duPxF5sf+nv3v79tH/WVSfjz57ZHfo646i+uvqpxUOMf63Yxes6nrWZO0FFAA1TWE49v36UPG/tIzwwwfeGw+8ddPfFN137DP2XXS/x/rLfj78rK6sE7RWHbJ8PZKw2vmK0ZZ8i9+vbtg08p8fqbKav295RTo3lLXioYDiT7rNksfGC4zFC1etJkbLVktAMquVj2VF8+KJbCSconvNshrnbpT+6YEdo3+Qe7FlLnCs7/RPl9k8V7Nwcv3OaJNroTVoLF+nRq5qvuajDcGtG279cZj+4VNHv6pnp1ud7LL4W/5V9XKKhT+1c+SfyjrpNl5gLF646hSr9VRNBRQANUzcrRPp9FDSelYI/TMFh//tzszRcs7Y7wr0+Dq+3fVUEZOfiSbRpojOiuxDvk6pWdl8xWi37W2H62okTz5l5Kt8MuwFe9Ntuzb97Sq7WXTxeNJtmmSlFPHhi8d58aTIRVduRq0EFAC1StfDwcZK/9Fnj24LvwHeFZ7N/Rv9h3v6wdRsmsbf+z/q+z94pqSJuI64rtB9IXFHg2gRTUoKedXdytcPCGfrkK/bd4z9v6H1oz8VfvMXz7Mp8JF+tMw9bCcCHZmZP4G3yCIj/Fghueb8mdEXxUMNJ9bj/3oLlPGb1lJFtu6ZCoV5/x6TO8YqZza+e/q8Vjr/a4AnrVQmnI28I5yQtHely69kufAta3vYXblnJcseX+bbnax1+cGdI3+xij7WfFH5qle+tu0+9Mpwun78Gevpq3mxhA+uf5ppzZ7zZ9ecUfwx+lMEtm3P1E+Edf5lmHXaKWYv+6nQx7eStHX5ge0jsa9KP2wf8qXHHoB8XpVsHTeAG2aOnBMq9JtWGODt5x8deccKl13xYsfXefuKOghjjWOu28Y/jlW+VpTxvi10+85N+4Y6634yBLCaDeBcKNKvXKuNf8QKezG+Gu5ZcNUq4W4+bebI0+uw8V/lOBu5eOW+zfbKggpvaaF4m9IsS34ntNq0dMvjc9PknpksfXoRv0Ve1voe0ej8Pe3HDafZl8PdzR/7iFmL/Xko/CTpN27fPvahxRrU6Xn5qk+24hXx5i+KE34XH6LO9eUp7Ol6ezg2/7Z+jHbr7qlbw5eDn8257nY4V+H14XBFwYdAckaRs7ntQz6wXC/ifF1r3Q+BuGHstObinfK+sIz1h1ohfU2/Nv4xvrjuGEOYDHsaez6+EMc2KBv/OFr56pnzyjSI97aY3Dl2TauTvDB8c8px8Z70c2c9dezt/RrITCv7xbDuu5a7/jC2L3fSzk/VbeO/3PFp97CAAuBhi4GZOnjN6X//wFmjzw1b93eGQXUWG1iWJu89sH30E4vNX6vnYwwxliXW14ljiWOKY1uiXS1nyVe90nbbrrHbjqbZOaFkXc575/vhZlpX9vPEuTu2b7o3VNevDsqLfhacyEDYu/a+9ZtGzzt2p8ETz/p/UAUUAAOa2S++Np05sHPs6vDGvzAM8aTqP1T5f3XW0dGSriWQHzXGEmM6xZJ3xTHEscQxnWL+QDwlX/VKY9yohr0BF4fX5ptD5EcXjT7LfmU1N9NatN+cMw7sGIvn2ix1w6H7wonALw57pN5QxvUJcoar+RoJKADWCLpfq4lv/M5M55yw/lu7Yjg015q7/JaJdPEPrq7GazEZY4kxhXUd6lrfrTH24x9eXU8P7qR81Su3IV9hz1X67BD110+OPPvg5M5Nt5z8fH+eCXvQ4k+GT3XL4QPrhtJzirwscX9GaK15BRQAecVq2P7gxOb7ws8XXxIuDvK6EP5D4Zv2r1VxV3qMKcZ2LMbsdTHmGHsNyVcVsnytim/NF57cMfqlzsz0ueEw1Ye6Vv61ofVjJV32umstOSbn96B1ZuP1Nx48vli4Dke6M9yK+IJPXz160l7CHF1rWlOB8Hlbr4ezPFeXr/Hrp59w8OqR76yul3KXrkOM5Qo83HsdLOoQ48Oi5U5t2z11ZTyfJRxsv/DgjrEvl7u2lfUerg/wqnDoYneSda6Y3Ln5zpX1Us2lbB/y5UUBkM8rqeKFgHIOQXMCBEoUiPd+qOIlqbuHXIcYu+Nd7rQCYLlSx9o5BJDPS2sCBAgsKVD1jX8Mvg4xLolsZiECCoBCGHVCgAABAgTqJaAAqFe+REuAAAECBAoRUAAUwqgTAgQIECBQLwEFQL3yJVoCBAgQIFCIgAKgEEadECBAgACBegkoAOqVL9ESIECAAIFCBBQAhTDqhAABAgQI1EtAAVCvfImWAAECBAgUIqAAKIRRJwQIECBAoF4CCoB65Uu0BAgQIECgEAEFQCGMOiFAgAABAvUSUADUK1+iJUCAAAEChQgoAAph1AkBAgQIEKiXgAKgXvkSLQECBAgQKERAAVAIo04IECBAgEC9BBQA9cqXaAkQIECAQCECCoBCGHVCgAABAgTqJaAAqFe+REuAAAECBAoRUAAUwqgTAgQIECBQLwEFQL3yJVoCBAgQIFCIgAKgEEadECBAgACBegkoAOqVL9ESIECAAIFCBBQAhTDqhAABAgQI1EtAAVCvfImWAAECBAgUIqAAKIRRJwQIECBAoF4CCoB65Uu0BAgQIECgEAEFQCGMOiFAgAABAvUSUADUK1+iJUCAAAEChQgoAAph1AkBAgQIEKiXgAKgXvkSLQECBAgQKERAAVAIo04IECBAgEC9BBQA9cqXaAkQIECAQCECCoBCGHVCgAABAgTqJaAAqFe+REuAAAECBAoRUAAUwqgTAgQIECBQLwEFQL3yJVoCBAgQIFCIgAKgEEadECBAgACBegkoAOqVL9ESIECAAIFCBBQAhTDqhAABAgQI1EtAAVCvfImWAAECBAgUIqAAKIRRJwQIECBAoF4CCoB65Uu0BAgQIECgEAEFQCGMOiFAgAABAvUSUADUK1+iJUCAAAEChQgoAAph1AkBAgQIEKiXgAKgXvkSLQECBAgQKERAAVAIo04IECBAgEC9BBQA9cqXaAkQIECAQCECQ4X00qBOtu6Zypoy3DRJ7s7S5GBnXeuqg1ePfKcp4zZOAoMsMH799BNac513plkyHj7MHjfIYzW2pQXsAVjap9Fz5z8csuTy1mznK/FDo9EYBk9gAATmN/7h/ZyE97WN/wAkdJVDUACsErAhi58ZvzE0ZKyGSWBgBY6/j88c2AEaWC4BBUAurgY3zpLnN3j0hk5gMAS8jwcjjwWNQgFQEGQDunl8A8ZoiAQGXcD7eNAznGN8CoAcWJoSIECAAIFBEVAADEomjYMAAQIECOQQUADkwNKUAAECBAgMioACYFAyaRwECBAgQCCHgAIgB5amBAgQIEBgUAQUAIOSSeMgQIAAAQI5BBQAObA0JUCAAAECgyKgABiUTBoHAQIECBDIIaAAyIGlKQECBAgQGBQBBcCgZNI4CBAgQIBADgEFQA4sTQkQIECAwKAIKAAGJZPGQYAAAQIEcggoAHJgaUqAAAECBAZFQAEwKJk0DgIECBAgkENAAZADS1MCBAgQIDAoAgqAQcmkcRAgQIAAgRwCCoAcWJoSIECAAIFBEVAADEomjYMAAQIECOQQUADkwNKUAAECBAgMioACYFAyaRwECBAgQCCHgAIgB5amBAgQIEBgUAQUAIOSSeMgQIAAAQI5BBQAObA0JUCAAAECgyKgABiUTJY/jrvKX4U1ECBQsoD3ccnAdepeAVCnbPUz1jT5TD9Xb90ECBQg4H1cAOLgdKEAGJxcljmS73bWta4qcwX6JkCgfIHj7+Pvlr8ma6iDgAKgDlnqU4xpktydpMlNnaHWOQevHvlOn8KwWgIEChKI7+P4fo7v6/n3d0H96oYAAQIECBAgQIAAAQIECBAgQIAAAQIECBAgQIAAAQIECBAgQIAAAQIECBAgQIAAAQIECBAgQIAAAQIECBAgQIAAAQIECBAgQIAAAQIECBAgQIAAAQIECBAgQIAAAQIECBAgQIAAAQIECBAgQIAAAQIECBAgQIAAAQIECBAgQIAAAQIECBAgQIAAAQIECBAgQIAAAQIECBAgQIAAAQIECBAgQIAAAQIECBAgQIAAAQIECBAgQIAAAQIECBAgQIAAAQIECBAgQIAAAQIECBAgQIAAAQIECBAgQIAAAQIECBAgQIAAAQIECBAgQIAAAQIECBAgQIAAAQIECBAgQIAAAQIECBAgQIAAAQIECBAgQIAAAQIECBAgQIAAAQIECBAgQIAAAQIECBAgQIAAAQIECBAgQIAAAQIECBAgQIAAAQIECBAgQIAAAQIECBAgQIAAAQIECBAgQIAAAQIECBAgQIAAAQIECBAgQIAAAQIECBAgQIAAAQIECBAgQIAAAQIECBAgQIAAAQIECBAgQIAAAQIECBAgQIAAAQIECBAgQIAAAQIECBAgQIAAAQIECBAgQIAAAQIECBAgQIAAAQIECBAgQIAAAQIECBAgQIAAAQIECBAgQIAAAQIECBAgQIAAAQIECBAgQIAAAQIECBAgQIAAAQIECBAgQIAAAQIECBAgQIAAAQIECBAgQIAAAQIECBAgQIAAAQIECBAgQIAAAQIECBAgQIAAAQIECBAgQIAAAQIECBAgQIAAAQIECBAgQIAAAQIECBAgQIAAAQIECBAgQIAAAQIECBAgQIAAAQIECBAgQIAAAQIECBAgQIAAAQIECBAgQIAAAQIECBAgQIAAAQIECBAgQIAAAQIECBAgQIAAAQIECBAgQIAAAQIECBAgQIAAAQIECBAgQIAAAQIECBAgQIAAAQIECBAgQIAAAQIECBAgQIAAAQIECBAgQIAAAQIECBAgQIAAAQIECBAgQIAAAQIECBAgQIAAAQIECBAgQIAAAQIECBAgQIAAAQIECBAgQIAAAQIECBAgQIAAAQIECBAgQIAAAQIECBAgQIAAAQIECBAgQIAAAQIECBAgQIAAAQIECBAgQIAAAQIECBAgQIAAAQIECBAgQIAAAQIECBAgQIAAAQIECBAgQIAAAQIECBAgQIAAAQIECBAgQIAAAQIECBAgQIAAAQIECBAgQIAAAQIECBAgQIAAAQIECBAgQIAAAQIECBAgQIAAAQIECBAgQIAAAQIECBAgQIAAAQIECBAgQIAAAQIECBAgQIAAAQIECBAgQIAAAQIECBAgQIAAAQIECBAgQIAAAQIECBAgQIAAAQIECBAgQIAAAQIECBAgQIAAAQIECBAgQIAAAQIECBAgQIAAAQIECBAgQIAAAQIECBAgQIAAAQIECBAgQIAAAQIECBAgQIAAAQIECBAgQIAAAQIECBAgQIAAAQIECBAgQIAAAQIECBAgQIAAAQIECBAgQIAAAQIECBAgQIAAAQIECBAgQIAAAQIECBAgQIAAAQIECBAgQIAAAQIECBAgQIAAAQIECBAgQIDAIgL/H/m3inD4i7IAAAAAAElFTkSuQmCC;clipPath=inset(23.67% 8% 25% 7.67%);fontSize=11;fontColor=#999999;fontStyle=1" parent="TfbpHEirQnWEi919bVSF-1" vertex="1">
                    <mxGeometry x="240" y="385" width="33" height="20.086956521739133" as="geometry"/>
                </mxCell>
                <mxCell id="yVsQXxWx4Skl1uM3VvdF-44" style="edgeStyle=orthogonalEdgeStyle;html=1;entryX=0.5;entryY=1;entryDx=0;entryDy=0;entryPerimeter=0;dashed=1;dashPattern=1 4;strokeColor=#B3B3B3;fontSize=11;fontColor=#999999;" parent="TfbpHEirQnWEi919bVSF-1" source="yVsQXxWx4Skl1uM3VvdF-42" target="TfbpHEirQnWEi919bVSF-7" edge="1">
                    <mxGeometry relative="1" as="geometry"/>
                </mxCell>
                <mxCell id="yVsQXxWx4Skl1uM3VvdF-42" value="Looker Studio Dashboards" style="shape=image;imageAspect=0;aspect=fixed;verticalLabelPosition=bottom;verticalAlign=top;labelBackgroundColor=none;fontSize=11;fontColor=#999999;image=data:image/svg+xml,PHN2ZyB4bWxucz0iaHR0cDovL3d3dy53My5vcmcvMjAwMC9zdmciIHJvbGU9ImltZyIgdmlld0JveD0iMCAwIDI0IDI0IiBoZWlnaHQ9IjgwMHB4IiB3aWR0aD0iODAwcHgiIGZpbGw9IiMwMDAwMDAiPjxwYXRoIGQ9Ik0xMS45NDcgMGEyLjEgMi4xIDAgMCAwLTIuMDk1IDIuMTA0IDIuMSAyLjEgMCAwIDAgLjM1NSAxLjE2NmwuODk1LS44OTZhLjg4NC44ODQgMCAxIDEgLjU2NS41NjRsLS44OTUuODk1QTIuMDk2IDIuMDk2IDAgMCAwIDEzLjExOC4zNTkgMi4wOTYgMi4wOTYgMCAwIDAgMTEuOTQ4IDB6bS0uODM0IDYuMTEzYTMuMjYzIDMuMjYzIDAgMCAwLS42NTMtMS45NjVMOS4yOTQgNS4zMWExLjY2NyAxLjY2NyAwIDAgMS0uMzE3IDIuMDEybC42MzIgMS41NDVhMy4yODIgMy4yODIgMCAwIDAgMS41MDMtMi43NTR6bS0zLjI1IDEuNjY2aC0uMDNhMS42NyAxLjY3IDAgMCAxLS4wMDQtMy4zMzggMS42NjkgMS42NjkgMCAwIDEgLjkyLjI3NUw5LjkgMy41NjRhMy4yOCAzLjI4IDAgMCAwLTQuMTMzIDUuMDk0IDMuMjggMy4yOCAwIDAgMCAyLjcyOC42NjZMNy44NjMgNy43OHYtLjAwMXptNC4xMjggMS4zMzZjLS43MjggMC0xLjQ1Mi4xMDYtMi4xNS4zMTVsLjkyMiAyLjI1MmE1LjAyIDUuMDIgMCAxIDEtMS4xMjcuNDM1bC0uOTEtMi4yNDRhNy40NDIgNy40NDIgMCAwIDAtMy40MSA5Ljk1NnYuMDAxYTcuNDQyIDcuNDQyIDAgMCAwIDkuOTU3IDMuNDFoLjAwMWE3LjQ0MiA3LjQ0MiAwIDAgMCAzLjQxMi05Ljk1N0E3LjQ0MiA3LjQ0MiAwIDAgMCAxMiA5LjExM2gtLjAwOGwtLjAwMS4wMDJ6Ii8+PC9zdmc+;fontStyle=1" parent="TfbpHEirQnWEi919bVSF-1" vertex="1">
                    <mxGeometry x="182.66" y="895" width="40" height="40" as="geometry"/>
                </mxCell>
                <mxCell id="yVsQXxWx4Skl1uM3VvdF-46" style="edgeStyle=orthogonalEdgeStyle;html=1;entryX=0.5;entryY=1;entryDx=0;entryDy=0;entryPerimeter=0;dashed=1;dashPattern=1 4;strokeColor=#B3B3B3;fontSize=11;fontColor=#999999;" parent="TfbpHEirQnWEi919bVSF-1" source="yVsQXxWx4Skl1uM3VvdF-45" target="TfbpHEirQnWEi919bVSF-8" edge="1">
                    <mxGeometry relative="1" as="geometry"/>
                </mxCell>
                <mxCell id="yVsQXxWx4Skl1uM3VvdF-45" value="Google Sheets" style="shape=image;imageAspect=0;aspect=fixed;verticalLabelPosition=bottom;verticalAlign=top;labelBackgroundColor=none;fontSize=11;fontColor=#999999;image=https://upload.wikimedia.org/wikipedia/commons/thumb/3/30/Google_Sheets_logo_%282014-2020%29.svg/800px-Google_Sheets_logo_%282014-2020%29.svg.png;fontStyle=1" parent="TfbpHEirQnWEi919bVSF-1" vertex="1">
                    <mxGeometry x="360.23" y="890" width="32.89" height="45" as="geometry"/>
                </mxCell>
                <mxCell id="yVsQXxWx4Skl1uM3VvdF-47" value="Project&amp;nbsp;&lt;b&gt;-tests&lt;/b&gt;" style="sketch=0;points=[[0,0,0],[0.25,0,0],[0.5,0,0],[0.75,0,0],[1,0,0],[1,0.25,0],[1,0.5,0],[1,0.75,0],[1,1,0],[0.75,1,0],[0.5,1,0],[0.25,1,0],[0,1,0],[0,0.75,0],[0,0.5,0],[0,0.25,0]];rounded=1;absoluteArcSize=1;arcSize=2;html=1;strokeColor=none;gradientColor=none;shadow=0;dashed=0;fontSize=12;fontColor=#9E9E9E;align=left;verticalAlign=top;spacing=10;spacingTop=-4;fillColor=#F6F6F6;" parent="TfbpHEirQnWEi919bVSF-1" vertex="1">
                    <mxGeometry x="-260" y="682" width="190" height="100" as="geometry"/>
                </mxCell>
            </root>
        </mxGraphModel>
    </diagram>
</mxfile>